<svg width="600" height="400" viewBox="0 0 600 400" fill="none" xmlns="http://www.w3.org/2000/svg">
<rect width="600" height="400" fill="white"/>
<rect x="255" y="7" width="90" height="30" fill="#E5E5E5"/>
<path d="M273.198 25H272.162V21.3853H268.219V25H267.188V17.1797H268.219V20.542H272.162V17.1797H273.198V25ZM280.272 18.0283H277.758V25H276.732V18.0283H274.224V17.1797H280.272V18.0283ZM286.921 18.0283H284.408V25H283.382V18.0283H280.874V17.1797H286.921V18.0283ZM289.113 21.9385V25H288.082V17.1797H290.966C291.822 17.1797 292.491 17.3981 292.975 17.835C293.462 18.2718 293.705 18.8501 293.705 19.5698C293.705 20.3289 293.467 20.9144 292.991 21.3262C292.518 21.7344 291.84 21.9385 290.955 21.9385H289.113ZM289.113 21.0952H290.966C291.517 21.0952 291.94 20.9663 292.233 20.7085C292.527 20.4471 292.674 20.0711 292.674 19.5806C292.674 19.1151 292.527 18.7427 292.233 18.4634C291.94 18.1841 291.537 18.0391 291.025 18.0283H289.113V21.0952ZM300.403 20.0801C300.252 20.055 300.09 20.0425 299.914 20.0425C299.262 20.0425 298.82 20.32 298.587 20.875V25H297.594V19.1885H298.561L298.577 19.8599C298.903 19.3407 299.364 19.0811 299.962 19.0811C300.156 19.0811 300.303 19.1061 300.403 19.1562V20.0801ZM303.625 25.1074C302.838 25.1074 302.197 24.8496 301.703 24.334C301.208 23.8148 300.961 23.1219 300.961 22.2554V22.0728C300.961 21.4963 301.071 20.9824 301.289 20.5312C301.511 20.0765 301.819 19.722 302.213 19.4678C302.61 19.21 303.04 19.0811 303.502 19.0811C304.257 19.0811 304.845 19.3299 305.264 19.8276C305.683 20.3254 305.892 21.0379 305.892 21.9653V22.3789H301.955C301.969 22.9518 302.136 23.4155 302.455 23.77C302.777 24.1209 303.185 24.2964 303.679 24.2964C304.03 24.2964 304.327 24.2248 304.571 24.0815C304.814 23.9383 305.027 23.7485 305.21 23.5122L305.817 23.9849C305.33 24.7332 304.599 25.1074 303.625 25.1074ZM303.502 19.8975C303.101 19.8975 302.764 20.0443 302.492 20.3379C302.22 20.6279 302.052 21.0361 301.987 21.5625H304.898V21.4873C304.87 20.9824 304.734 20.5921 304.49 20.3164C304.247 20.0371 303.917 19.8975 303.502 19.8975ZM306.805 22.0459C306.805 21.1328 307.015 20.4113 307.434 19.8813C307.853 19.3478 308.415 19.0811 309.12 19.0811C309.808 19.0811 310.35 19.312 310.748 19.7739L310.791 19.1885H311.704V27.2344H310.71V24.4629C310.309 24.8926 309.775 25.1074 309.109 25.1074C308.408 25.1074 307.847 24.8353 307.428 24.291C307.013 23.7432 306.805 23.0181 306.805 22.1157V22.0459ZM307.799 22.1587C307.799 22.8247 307.938 23.3475 308.218 23.7271C308.501 24.1066 308.88 24.2964 309.356 24.2964C309.947 24.2964 310.398 24.035 310.71 23.5122V20.6655C310.395 20.1535 309.947 19.8975 309.367 19.8975C308.887 19.8975 308.506 20.089 308.223 20.4722C307.94 20.8517 307.799 21.4139 307.799 22.1587ZM316.887 24.4253C316.5 24.88 315.932 25.1074 315.184 25.1074C314.565 25.1074 314.092 24.9284 313.766 24.5703C313.444 24.2087 313.281 23.6751 313.277 22.9697V19.1885H314.271V22.9429C314.271 23.8237 314.629 24.2642 315.345 24.2642C316.104 24.2642 316.609 23.9813 316.86 23.4155V19.1885H317.854V25H316.908L316.887 24.4253ZM321.78 25.1074C320.992 25.1074 320.351 24.8496 319.857 24.334C319.363 23.8148 319.116 23.1219 319.116 22.2554V22.0728C319.116 21.4963 319.225 20.9824 319.443 20.5312C319.665 20.0765 319.973 19.722 320.367 19.4678C320.765 19.21 321.194 19.0811 321.656 19.0811C322.412 19.0811 322.999 19.3299 323.418 19.8276C323.837 20.3254 324.046 21.0379 324.046 21.9653V22.3789H320.109C320.124 22.9518 320.29 23.4155 320.609 23.77C320.931 24.1209 321.339 24.2964 321.833 24.2964C322.184 24.2964 322.482 24.2248 322.725 24.0815C322.969 23.9383 323.182 23.7485 323.364 23.5122L323.971 23.9849C323.484 24.7332 322.754 25.1074 321.78 25.1074ZM321.656 19.8975C321.255 19.8975 320.919 20.0443 320.646 20.3379C320.374 20.6279 320.206 21.0361 320.142 21.5625H323.053V21.4873C323.024 20.9824 322.888 20.5921 322.645 20.3164C322.401 20.0371 322.072 19.8975 321.656 19.8975ZM328.585 23.4585C328.585 23.1899 328.483 22.9823 328.279 22.8354C328.078 22.6851 327.726 22.5562 327.221 22.4487C326.719 22.3413 326.32 22.2124 326.023 22.062C325.729 21.9116 325.511 21.7326 325.368 21.5249C325.228 21.3172 325.158 21.0701 325.158 20.7837C325.158 20.3075 325.359 19.9046 325.76 19.5752C326.164 19.2458 326.68 19.0811 327.307 19.0811C327.965 19.0811 328.499 19.2511 328.907 19.5913C329.319 19.9315 329.525 20.3665 329.525 20.8965H328.526C328.526 20.6243 328.41 20.3898 328.177 20.1929C327.948 19.9959 327.658 19.8975 327.307 19.8975C326.945 19.8975 326.662 19.9762 326.458 20.1338C326.254 20.2913 326.152 20.4972 326.152 20.7515C326.152 20.9914 326.247 21.1722 326.437 21.2939C326.626 21.4157 326.968 21.5321 327.462 21.6431C327.96 21.7541 328.363 21.8866 328.671 22.0405C328.979 22.1945 329.206 22.3807 329.353 22.5991C329.503 22.814 329.579 23.0771 329.579 23.3887C329.579 23.9079 329.371 24.325 328.956 24.6401C328.54 24.9517 328.001 25.1074 327.339 25.1074C326.873 25.1074 326.462 25.0251 326.104 24.8604C325.745 24.6956 325.464 24.4665 325.26 24.1729C325.06 23.8757 324.959 23.5552 324.959 23.2114H325.953C325.971 23.5444 326.104 23.8094 326.351 24.0063C326.601 24.1997 326.931 24.2964 327.339 24.2964C327.715 24.2964 328.016 24.2212 328.241 24.0708C328.47 23.9168 328.585 23.7127 328.585 23.4585ZM332.221 17.7812V19.1885H333.306V19.9565H332.221V23.5605C332.221 23.7933 332.27 23.9688 332.366 24.0869C332.463 24.2015 332.628 24.2588 332.86 24.2588C332.975 24.2588 333.132 24.2373 333.333 24.1943V25C333.072 25.0716 332.817 25.1074 332.57 25.1074C332.126 25.1074 331.792 24.9731 331.566 24.7046C331.34 24.436 331.228 24.0547 331.228 23.5605V19.9565H330.169V19.1885H331.228V17.7812H332.221Z" fill="black"/>
<rect x="255" y="78" width="90" height="30" fill="#E5E5E5"/>
<path d="M273.316 84.8921C273.757 84.3514 274.33 84.0811 275.035 84.0811C276.263 84.0811 276.883 84.7739 276.894 86.1597V90H275.9V86.1543C275.896 85.7354 275.8 85.4256 275.61 85.2251C275.424 85.0246 275.132 84.9243 274.734 84.9243C274.412 84.9243 274.129 85.0103 273.886 85.1821C273.642 85.354 273.452 85.5796 273.316 85.8589V90H272.323V81.75H273.316V84.8921ZM281.969 90C281.912 89.8854 281.865 89.6813 281.83 89.3877C281.368 89.8675 280.816 90.1074 280.175 90.1074C279.602 90.1074 279.132 89.9463 278.763 89.624C278.397 89.2982 278.215 88.8864 278.215 88.3887C278.215 87.7835 278.444 87.3145 278.902 86.9814C279.364 86.6449 280.012 86.4766 280.847 86.4766H281.813V86.02C281.813 85.6727 281.71 85.397 281.502 85.1929C281.294 84.9852 280.988 84.8813 280.583 84.8813C280.229 84.8813 279.932 84.9709 279.692 85.1499C279.452 85.3289 279.332 85.5456 279.332 85.7998H278.333C278.333 85.5098 278.435 85.2305 278.639 84.9619C278.847 84.6898 279.126 84.4749 279.477 84.3174C279.832 84.1598 280.22 84.0811 280.643 84.0811C281.312 84.0811 281.837 84.2493 282.216 84.5859C282.596 84.9189 282.793 85.3791 282.807 85.9663V88.6411C282.807 89.1746 282.875 89.599 283.011 89.9141V90H281.969ZM280.32 89.2427C280.632 89.2427 280.927 89.1621 281.207 89.001C281.486 88.8398 281.688 88.6304 281.813 88.3726V87.1802H281.035C279.817 87.1802 279.208 87.5365 279.208 88.249C279.208 88.5605 279.312 88.804 279.52 88.9795C279.728 89.1549 279.994 89.2427 280.32 89.2427ZM285.305 84.1885L285.337 84.9189C285.781 84.3604 286.361 84.0811 287.077 84.0811C288.305 84.0811 288.925 84.7739 288.936 86.1597V90H287.942V86.1543C287.938 85.7354 287.842 85.4256 287.652 85.2251C287.466 85.0246 287.174 84.9243 286.776 84.9243C286.454 84.9243 286.171 85.0103 285.928 85.1821C285.684 85.354 285.494 85.5796 285.358 85.8589V90H284.365V84.1885H285.305ZM290.192 87.0459C290.192 86.1543 290.404 85.4382 290.826 84.8975C291.249 84.3532 291.802 84.0811 292.486 84.0811C293.166 84.0811 293.705 84.3138 294.103 84.7793V81.75H295.096V90H294.183L294.135 89.377C293.737 89.8639 293.184 90.1074 292.475 90.1074C291.802 90.1074 291.252 89.8317 290.826 89.2803C290.404 88.7288 290.192 88.0091 290.192 87.1211V87.0459ZM291.186 87.1587C291.186 87.8175 291.322 88.3332 291.594 88.7056C291.866 89.078 292.242 89.2642 292.722 89.2642C293.352 89.2642 293.812 88.9813 294.103 88.4155V85.7461C293.805 85.1982 293.349 84.9243 292.733 84.9243C292.246 84.9243 291.866 85.1123 291.594 85.4883C291.322 85.8643 291.186 86.4211 291.186 87.1587ZM297.723 90H296.729V81.75H297.723V90ZM301.729 90.1074C300.942 90.1074 300.301 89.8496 299.807 89.334C299.312 88.8148 299.065 88.1219 299.065 87.2554V87.0728C299.065 86.4963 299.175 85.9824 299.393 85.5312C299.615 85.0765 299.923 84.722 300.317 84.4678C300.714 84.21 301.144 84.0811 301.606 84.0811C302.361 84.0811 302.949 84.3299 303.368 84.8276C303.787 85.3254 303.996 86.0379 303.996 86.9653V87.3789H300.059C300.073 87.9518 300.24 88.4155 300.559 88.77C300.881 89.1209 301.289 89.2964 301.783 89.2964C302.134 89.2964 302.431 89.2248 302.675 89.0815C302.918 88.9383 303.131 88.7485 303.314 88.5122L303.921 88.9849C303.434 89.7332 302.703 90.1074 301.729 90.1074ZM301.606 84.8975C301.205 84.8975 300.868 85.0443 300.596 85.3379C300.324 85.6279 300.156 86.0361 300.091 86.5625H303.002V86.4873C302.974 85.9824 302.838 85.5921 302.594 85.3164C302.351 85.0371 302.021 84.8975 301.606 84.8975ZM311.467 89.4253C311.081 89.88 310.513 90.1074 309.765 90.1074C309.145 90.1074 308.673 89.9284 308.347 89.5703C308.024 89.2087 307.861 88.6751 307.858 87.9697V84.1885H308.852V87.9429C308.852 88.8237 309.21 89.2642 309.926 89.2642C310.685 89.2642 311.19 88.9813 311.44 88.4155V84.1885H312.434V90H311.489L311.467 89.4253ZM317.333 88.4585C317.333 88.1899 317.23 87.9823 317.026 87.8354C316.826 87.6851 316.473 87.5562 315.968 87.4487C315.467 87.3413 315.068 87.2124 314.771 87.062C314.477 86.9116 314.258 86.7326 314.115 86.5249C313.976 86.3172 313.906 86.0701 313.906 85.7837C313.906 85.3075 314.106 84.9046 314.507 84.5752C314.912 84.2458 315.428 84.0811 316.054 84.0811C316.713 84.0811 317.247 84.2511 317.655 84.5913C318.067 84.9315 318.272 85.3665 318.272 85.8965H317.273C317.273 85.6243 317.157 85.3898 316.924 85.1929C316.695 84.9959 316.405 84.8975 316.054 84.8975C315.693 84.8975 315.41 84.9762 315.206 85.1338C315.001 85.2913 314.899 85.4972 314.899 85.7515C314.899 85.9914 314.994 86.1722 315.184 86.2939C315.374 86.4157 315.716 86.5321 316.21 86.6431C316.708 86.7541 317.111 86.8866 317.418 87.0405C317.726 87.1945 317.954 87.3807 318.101 87.5991C318.251 87.814 318.326 88.0771 318.326 88.3887C318.326 88.9079 318.118 89.325 317.703 89.6401C317.288 89.9517 316.749 90.1074 316.086 90.1074C315.621 90.1074 315.209 90.0251 314.851 89.8604C314.493 89.6956 314.212 89.4665 314.008 89.1729C313.807 88.8757 313.707 88.5552 313.707 88.2114H314.701C314.719 88.5444 314.851 88.8094 315.098 89.0063C315.349 89.1997 315.678 89.2964 316.086 89.2964C316.462 89.2964 316.763 89.2212 316.989 89.0708C317.218 88.9168 317.333 88.7127 317.333 88.4585ZM322.032 90.1074C321.244 90.1074 320.604 89.8496 320.109 89.334C319.615 88.8148 319.368 88.1219 319.368 87.2554V87.0728C319.368 86.4963 319.477 85.9824 319.696 85.5312C319.918 85.0765 320.226 84.722 320.62 84.4678C321.017 84.21 321.447 84.0811 321.909 84.0811C322.664 84.0811 323.251 84.3299 323.67 84.8276C324.089 85.3254 324.299 86.0379 324.299 86.9653V87.3789H320.362C320.376 87.9518 320.543 88.4155 320.861 88.77C321.184 89.1209 321.592 89.2964 322.086 89.2964C322.437 89.2964 322.734 89.2248 322.978 89.0815C323.221 88.9383 323.434 88.7485 323.617 88.5122L324.224 88.9849C323.737 89.7332 323.006 90.1074 322.032 90.1074ZM321.909 84.8975C321.508 84.8975 321.171 85.0443 320.899 85.3379C320.627 85.6279 320.458 86.0361 320.394 86.5625H323.305V86.4873C323.277 85.9824 323.14 85.5921 322.897 85.3164C322.653 85.0371 322.324 84.8975 321.909 84.8975ZM328.263 85.0801C328.112 85.055 327.949 85.0425 327.774 85.0425C327.122 85.0425 326.68 85.32 326.447 85.875V90H325.454V84.1885H326.42L326.437 84.8599C326.762 84.3407 327.224 84.0811 327.822 84.0811C328.016 84.0811 328.162 84.1061 328.263 84.1562V85.0801ZM270.824 103C270.767 102.885 270.72 102.681 270.685 102.388C270.223 102.868 269.671 103.107 269.03 103.107C268.457 103.107 267.986 102.946 267.618 102.624C267.252 102.298 267.07 101.886 267.07 101.389C267.07 100.784 267.299 100.314 267.757 99.9814C268.219 99.6449 268.867 99.4766 269.702 99.4766H270.668V99.02C270.668 98.6727 270.565 98.397 270.357 98.1929C270.149 97.9852 269.843 97.8813 269.438 97.8813C269.084 97.8813 268.787 97.9709 268.547 98.1499C268.307 98.3289 268.187 98.5456 268.187 98.7998H267.188C267.188 98.5098 267.29 98.2305 267.494 97.9619C267.702 97.6898 267.981 97.4749 268.332 97.3174C268.687 97.1598 269.075 97.0811 269.498 97.0811C270.167 97.0811 270.692 97.2493 271.071 97.5859C271.451 97.9189 271.648 98.3791 271.662 98.9663V101.641C271.662 102.175 271.73 102.599 271.866 102.914V103H270.824ZM269.175 102.243C269.487 102.243 269.782 102.162 270.062 102.001C270.341 101.84 270.543 101.63 270.668 101.373V100.18H269.89C268.672 100.18 268.063 100.536 268.063 101.249C268.063 101.561 268.167 101.804 268.375 101.979C268.583 102.155 268.849 102.243 269.175 102.243ZM275.051 101.652L276.491 97.1885H277.506L275.422 103H274.665L272.559 97.1885H273.574L275.051 101.652ZM281.964 103C281.907 102.885 281.86 102.681 281.824 102.388C281.362 102.868 280.811 103.107 280.17 103.107C279.597 103.107 279.126 102.946 278.757 102.624C278.392 102.298 278.209 101.886 278.209 101.389C278.209 100.784 278.439 100.314 278.897 99.9814C279.359 99.6449 280.007 99.4766 280.841 99.4766H281.808V99.02C281.808 98.6727 281.704 98.397 281.497 98.1929C281.289 97.9852 280.983 97.8813 280.578 97.8813C280.224 97.8813 279.926 97.9709 279.687 98.1499C279.447 98.3289 279.327 98.5456 279.327 98.7998H278.328C278.328 98.5098 278.43 98.2305 278.634 97.9619C278.841 97.6898 279.121 97.4749 279.472 97.3174C279.826 97.1598 280.215 97.0811 280.637 97.0811C281.307 97.0811 281.831 97.2493 282.211 97.5859C282.59 97.9189 282.787 98.3791 282.802 98.9663V101.641C282.802 102.175 282.87 102.599 283.006 102.914V103H281.964ZM280.315 102.243C280.626 102.243 280.922 102.162 281.201 102.001C281.48 101.84 281.683 101.63 281.808 101.373V100.18H281.029C279.812 100.18 279.203 100.536 279.203 101.249C279.203 101.561 279.307 101.804 279.515 101.979C279.722 102.155 279.989 102.243 280.315 102.243ZM285.708 95.7812V97.1885H286.792V97.9565H285.708V101.561C285.708 101.793 285.756 101.969 285.853 102.087C285.949 102.201 286.114 102.259 286.347 102.259C286.461 102.259 286.619 102.237 286.819 102.194V103C286.558 103.072 286.304 103.107 286.057 103.107C285.613 103.107 285.278 102.973 285.052 102.705C284.827 102.436 284.714 102.055 284.714 101.561V97.9565H283.656V97.1885H284.714V95.7812H285.708ZM291.546 103C291.489 102.885 291.442 102.681 291.406 102.388C290.944 102.868 290.393 103.107 289.752 103.107C289.179 103.107 288.708 102.946 288.339 102.624C287.974 102.298 287.792 101.886 287.792 101.389C287.792 100.784 288.021 100.314 288.479 99.9814C288.941 99.6449 289.589 99.4766 290.423 99.4766H291.39V99.02C291.39 98.6727 291.286 98.397 291.079 98.1929C290.871 97.9852 290.565 97.8813 290.16 97.8813C289.806 97.8813 289.508 97.9709 289.269 98.1499C289.029 98.3289 288.909 98.5456 288.909 98.7998H287.91C287.91 98.5098 288.012 98.2305 288.216 97.9619C288.424 97.6898 288.703 97.4749 289.054 97.3174C289.408 97.1598 289.797 97.0811 290.219 97.0811C290.889 97.0811 291.413 97.2493 291.793 97.5859C292.173 97.9189 292.369 98.3791 292.384 98.9663V101.641C292.384 102.175 292.452 102.599 292.588 102.914V103H291.546ZM289.897 102.243C290.208 102.243 290.504 102.162 290.783 102.001C291.062 101.84 291.265 101.63 291.39 101.373V100.18H290.611C289.394 100.18 288.785 100.536 288.785 101.249C288.785 101.561 288.889 101.804 289.097 101.979C289.304 102.155 289.571 102.243 289.897 102.243ZM296.75 98.0801C296.6 98.055 296.437 98.0425 296.262 98.0425C295.61 98.0425 295.168 98.32 294.935 98.875V103H293.941V97.1885H294.908L294.924 97.8599C295.25 97.3407 295.712 97.0811 296.31 97.0811C296.503 97.0811 296.65 97.1061 296.75 97.1562V98.0801ZM303.985 102.425C303.599 102.88 303.031 103.107 302.283 103.107C301.663 103.107 301.191 102.928 300.865 102.57C300.542 102.209 300.38 101.675 300.376 100.97V97.1885H301.37V100.943C301.37 101.824 301.728 102.264 302.444 102.264C303.203 102.264 303.708 101.981 303.958 101.416V97.1885H304.952V103H304.007L303.985 102.425ZM311.376 100.159C311.376 101.043 311.174 101.756 310.769 102.296C310.364 102.837 309.817 103.107 309.125 103.107C308.42 103.107 307.865 102.884 307.46 102.436V105.234H306.467V97.1885H307.375L307.423 97.833C307.827 97.3317 308.39 97.0811 309.109 97.0811C309.808 97.0811 310.359 97.3442 310.764 97.8706C311.172 98.397 311.376 99.1292 311.376 100.067V100.159ZM310.382 100.046C310.382 99.3906 310.243 98.8732 309.963 98.4937C309.684 98.1141 309.301 97.9243 308.814 97.9243C308.212 97.9243 307.761 98.1911 307.46 98.7246V101.501C307.758 102.031 308.212 102.296 308.825 102.296C309.301 102.296 309.679 102.108 309.958 101.732C310.241 101.353 310.382 100.791 310.382 100.046ZM312.402 100.046C312.402 99.1543 312.613 98.4382 313.036 97.8975C313.458 97.3532 314.011 97.0811 314.695 97.0811C315.376 97.0811 315.915 97.3138 316.312 97.7793V94.75H317.306V103H316.393L316.344 102.377C315.947 102.864 315.394 103.107 314.685 103.107C314.011 103.107 313.462 102.832 313.036 102.28C312.613 101.729 312.402 101.009 312.402 100.121V100.046ZM313.396 100.159C313.396 100.818 313.532 101.333 313.804 101.706C314.076 102.078 314.452 102.264 314.932 102.264C315.562 102.264 316.022 101.981 316.312 101.416V98.7461C316.015 98.1982 315.558 97.9243 314.942 97.9243C314.455 97.9243 314.076 98.1123 313.804 98.4883C313.532 98.8643 313.396 99.4211 313.396 100.159ZM322.44 103C322.383 102.885 322.337 102.681 322.301 102.388C321.839 102.868 321.287 103.107 320.646 103.107C320.074 103.107 319.603 102.946 319.234 102.624C318.869 102.298 318.686 101.886 318.686 101.389C318.686 100.784 318.915 100.314 319.374 99.9814C319.835 99.6449 320.484 99.4766 321.318 99.4766H322.285V99.02C322.285 98.6727 322.181 98.397 321.973 98.1929C321.765 97.9852 321.459 97.8813 321.055 97.8813C320.7 97.8813 320.403 97.9709 320.163 98.1499C319.923 98.3289 319.803 98.5456 319.803 98.7998H318.804C318.804 98.5098 318.906 98.2305 319.11 97.9619C319.318 97.6898 319.597 97.4749 319.948 97.3174C320.303 97.1598 320.691 97.0811 321.114 97.0811C321.783 97.0811 322.308 97.2493 322.688 97.5859C323.067 97.9189 323.264 98.3791 323.278 98.9663V101.641C323.278 102.175 323.346 102.599 323.482 102.914V103H322.44ZM320.792 102.243C321.103 102.243 321.398 102.162 321.678 102.001C321.957 101.84 322.159 101.63 322.285 101.373V100.18H321.506C320.288 100.18 319.68 100.536 319.68 101.249C319.68 101.561 319.784 101.804 319.991 101.979C320.199 102.155 320.466 102.243 320.792 102.243ZM326.184 95.7812V97.1885H327.269V97.9565H326.184V101.561C326.184 101.793 326.232 101.969 326.329 102.087C326.426 102.201 326.59 102.259 326.823 102.259C326.938 102.259 327.095 102.237 327.296 102.194V103C327.035 103.072 326.78 103.107 326.533 103.107C326.089 103.107 325.754 102.973 325.529 102.705C325.303 102.436 325.19 102.055 325.19 101.561V97.9565H324.132V97.1885H325.19V95.7812H326.184ZM330.846 103.107C330.058 103.107 329.417 102.85 328.923 102.334C328.429 101.815 328.182 101.122 328.182 100.255V100.073C328.182 99.4963 328.291 98.9824 328.51 98.5312C328.732 98.0765 329.04 97.722 329.434 97.4678C329.831 97.21 330.261 97.0811 330.723 97.0811C331.478 97.0811 332.065 97.3299 332.484 97.8276C332.903 98.3254 333.113 99.0379 333.113 99.9653V100.379H329.176C329.19 100.952 329.357 101.416 329.675 101.77C329.998 102.121 330.406 102.296 330.9 102.296C331.251 102.296 331.548 102.225 331.792 102.082C332.035 101.938 332.248 101.749 332.431 101.512L333.038 101.985C332.551 102.733 331.82 103.107 330.846 103.107ZM330.723 97.8975C330.322 97.8975 329.985 98.0443 329.713 98.3379C329.441 98.6279 329.272 99.0361 329.208 99.5625H332.119V99.4873C332.09 98.9824 331.954 98.5921 331.711 98.3164C331.467 98.0371 331.138 97.8975 330.723 97.8975Z" fill="black"/>
<rect x="114" y="80" width="90" height="30" fill="#E69292"/>
<path d="M132.515 87.0801C132.365 87.055 132.202 87.0425 132.026 87.0425C131.375 87.0425 130.932 87.32 130.7 87.875V92H129.706V86.1885H130.673L130.689 86.8599C131.015 86.3407 131.477 86.0811 132.075 86.0811C132.268 86.0811 132.415 86.1061 132.515 86.1562V87.0801ZM135.738 92.1074C134.95 92.1074 134.309 91.8496 133.815 91.334C133.321 90.8148 133.074 90.1219 133.074 89.2554V89.0728C133.074 88.4963 133.183 87.9824 133.401 87.5312C133.623 87.0765 133.931 86.722 134.325 86.4678C134.723 86.21 135.152 86.0811 135.614 86.0811C136.37 86.0811 136.957 86.3299 137.376 86.8276C137.795 87.3254 138.004 88.0379 138.004 88.9653V89.3789H134.067C134.082 89.9518 134.248 90.4155 134.567 90.77C134.889 91.1209 135.297 91.2964 135.792 91.2964C136.142 91.2964 136.44 91.2248 136.683 91.0815C136.927 90.9383 137.14 90.7485 137.322 90.5122L137.929 90.9849C137.442 91.7332 136.712 92.1074 135.738 92.1074ZM135.614 86.8975C135.213 86.8975 134.877 87.0443 134.604 87.3379C134.332 87.6279 134.164 88.0361 134.1 88.5625H137.011V88.4873C136.982 87.9824 136.846 87.5921 136.603 87.3164C136.359 87.0371 136.03 86.8975 135.614 86.8975ZM144.068 89.1587C144.068 90.0431 143.866 90.7557 143.461 91.2964C143.057 91.8371 142.509 92.1074 141.818 92.1074C141.112 92.1074 140.557 91.8836 140.153 91.436V94.2344H139.159V86.1885H140.067L140.115 86.833C140.52 86.3317 141.082 86.0811 141.802 86.0811C142.5 86.0811 143.051 86.3442 143.456 86.8706C143.864 87.397 144.068 88.1292 144.068 89.0674V89.1587ZM143.075 89.0459C143.075 88.3906 142.935 87.8732 142.656 87.4937C142.376 87.1141 141.993 86.9243 141.506 86.9243C140.905 86.9243 140.454 87.1911 140.153 87.7246V90.5015C140.45 91.0314 140.905 91.2964 141.517 91.2964C141.993 91.2964 142.371 91.1084 142.65 90.7324C142.933 90.3529 143.075 89.7907 143.075 89.0459ZM145.073 89.0405C145.073 88.4712 145.184 87.9591 145.406 87.5044C145.631 87.0496 145.943 86.6987 146.34 86.4517C146.741 86.2046 147.198 86.0811 147.71 86.0811C148.501 86.0811 149.14 86.355 149.627 86.9028C150.118 87.4507 150.363 88.1794 150.363 89.0889V89.1587C150.363 89.7244 150.254 90.2329 150.036 90.6841C149.821 91.1317 149.511 91.4808 149.106 91.7314C148.705 91.9821 148.243 92.1074 147.721 92.1074C146.933 92.1074 146.294 91.8335 145.803 91.2856C145.316 90.7378 145.073 90.0127 145.073 89.1104V89.0405ZM146.072 89.1587C146.072 89.8032 146.22 90.3206 146.518 90.7109C146.818 91.1012 147.219 91.2964 147.721 91.2964C148.226 91.2964 148.627 91.0994 148.924 90.7056C149.221 90.3081 149.37 89.7531 149.37 89.0405C149.37 88.4032 149.217 87.8875 148.913 87.4937C148.612 87.0962 148.211 86.8975 147.71 86.8975C147.219 86.8975 146.824 87.0926 146.523 87.4829C146.222 87.8732 146.072 88.4318 146.072 89.1587ZM152.549 86.1885L152.582 86.9189C153.026 86.3604 153.606 86.0811 154.322 86.0811C155.55 86.0811 156.169 86.7739 156.18 88.1597V92H155.187V88.1543C155.183 87.7354 155.086 87.4256 154.896 87.2251C154.71 87.0246 154.418 86.9243 154.021 86.9243C153.699 86.9243 153.416 87.0103 153.172 87.1821C152.929 87.354 152.739 87.5796 152.603 87.8589V92H151.609V86.1885H152.549ZM157.437 89.0459C157.437 88.1543 157.648 87.4382 158.071 86.8975C158.493 86.3532 159.047 86.0811 159.73 86.0811C160.411 86.0811 160.95 86.3138 161.347 86.7793V83.75H162.341V92H161.428L161.379 91.377C160.982 91.8639 160.429 92.1074 159.72 92.1074C159.047 92.1074 158.497 91.8317 158.071 91.2803C157.648 90.7288 157.437 90.0091 157.437 89.1211V89.0459ZM158.431 89.1587C158.431 89.8175 158.567 90.3332 158.839 90.7056C159.111 91.078 159.487 91.2642 159.967 91.2642C160.597 91.2642 161.057 90.9813 161.347 90.4155V87.7461C161.05 87.1982 160.593 86.9243 159.978 86.9243C159.491 86.9243 159.111 87.1123 158.839 87.4883C158.567 87.8643 158.431 88.4211 158.431 89.1587ZM169.028 92.1074C168.24 92.1074 167.599 91.8496 167.105 91.334C166.611 90.8148 166.364 90.1219 166.364 89.2554V89.0728C166.364 88.4963 166.473 87.9824 166.691 87.5312C166.913 87.0765 167.221 86.722 167.615 86.4678C168.013 86.21 168.442 86.0811 168.904 86.0811C169.66 86.0811 170.247 86.3299 170.666 86.8276C171.085 87.3254 171.294 88.0379 171.294 88.9653V89.3789H167.357C167.372 89.9518 167.538 90.4155 167.857 90.77C168.179 91.1209 168.587 91.2964 169.082 91.2964C169.432 91.2964 169.73 91.2248 169.973 91.0815C170.217 90.9383 170.43 90.7485 170.612 90.5122L171.219 90.9849C170.732 91.7332 170.002 92.1074 169.028 92.1074ZM168.904 86.8975C168.503 86.8975 168.167 87.0443 167.895 87.3379C167.622 87.6279 167.454 88.0361 167.39 88.5625H170.301V88.4873C170.272 87.9824 170.136 87.5921 169.893 87.3164C169.649 87.0371 169.32 86.8975 168.904 86.8975ZM175.258 87.0801C175.108 87.055 174.945 87.0425 174.77 87.0425C174.118 87.0425 173.676 87.32 173.443 87.875V92H172.449V86.1885H173.416L173.432 86.8599C173.758 86.3407 174.22 86.0811 174.818 86.0811C175.011 86.0811 175.158 86.1061 175.258 86.1562V87.0801ZM178.986 87.0801C178.835 87.055 178.673 87.0425 178.497 87.0425C177.845 87.0425 177.403 87.32 177.17 87.875V92H176.177V86.1885H177.144L177.16 86.8599C177.486 86.3407 177.947 86.0811 178.545 86.0811C178.739 86.0811 178.886 86.1061 178.986 86.1562V87.0801ZM179.534 89.0405C179.534 88.4712 179.645 87.9591 179.867 87.5044C180.092 87.0496 180.404 86.6987 180.801 86.4517C181.202 86.2046 181.659 86.0811 182.171 86.0811C182.962 86.0811 183.601 86.355 184.088 86.9028C184.579 87.4507 184.824 88.1794 184.824 89.0889V89.1587C184.824 89.7244 184.715 90.2329 184.497 90.6841C184.282 91.1317 183.972 91.4808 183.567 91.7314C183.166 91.9821 182.704 92.1074 182.182 92.1074C181.394 92.1074 180.755 91.8335 180.264 91.2856C179.777 90.7378 179.534 90.0127 179.534 89.1104V89.0405ZM180.533 89.1587C180.533 89.8032 180.681 90.3206 180.979 90.7109C181.279 91.1012 181.68 91.2964 182.182 91.2964C182.687 91.2964 183.088 91.0994 183.385 90.7056C183.682 90.3081 183.831 89.7531 183.831 89.0405C183.831 88.4032 183.678 87.8875 183.374 87.4937C183.073 87.0962 182.672 86.8975 182.171 86.8975C181.68 86.8975 181.285 87.0926 180.984 87.4829C180.683 87.8732 180.533 88.4318 180.533 89.1587ZM188.879 87.0801C188.729 87.055 188.566 87.0425 188.391 87.0425C187.739 87.0425 187.297 87.32 187.064 87.875V92H186.07V86.1885H187.037L187.053 86.8599C187.379 86.3407 187.841 86.0811 188.439 86.0811C188.632 86.0811 188.779 86.1061 188.879 86.1562V87.0801ZM134.948 101.826C134.948 101.016 135.056 100.239 135.271 99.4946C135.489 98.7498 135.813 98.0731 136.243 97.4644C136.672 96.8556 137.118 96.4259 137.58 96.1753L137.784 96.8306C137.261 97.2316 136.832 97.8439 136.495 98.6675C136.162 99.491 135.979 100.413 135.947 101.434L135.942 101.89C135.942 103.272 136.194 104.472 136.699 105.489C137.004 106.097 137.365 106.574 137.784 106.917L137.58 107.524C137.104 107.259 136.649 106.815 136.216 106.192C135.371 104.975 134.948 103.519 134.948 101.826ZM142.838 102.374H143.923V103.185H142.838V105H141.839V103.185H138.278V102.599L141.78 97.1797H142.838V102.374ZM139.406 102.374H141.839V98.5386L141.721 98.7534L139.406 102.374ZM149.724 101.665C149.724 102.828 149.525 103.693 149.128 104.259C148.73 104.825 148.109 105.107 147.264 105.107C146.43 105.107 145.812 104.832 145.411 104.28C145.01 103.725 144.802 102.898 144.788 101.799V100.472C144.788 99.3228 144.987 98.4688 145.384 97.9102C145.782 97.3516 146.405 97.0723 147.253 97.0723C148.095 97.0723 148.714 97.3426 149.112 97.8833C149.509 98.4204 149.713 99.2511 149.724 100.375V101.665ZM148.73 100.306C148.73 99.4642 148.612 98.8519 148.376 98.4688C148.14 98.082 147.765 97.8887 147.253 97.8887C146.745 97.8887 146.374 98.0802 146.142 98.4634C145.909 98.8465 145.789 99.4355 145.782 100.23V101.82C145.782 102.665 145.903 103.29 146.147 103.695C146.394 104.096 146.766 104.296 147.264 104.296C147.755 104.296 148.118 104.107 148.354 103.727C148.594 103.347 148.72 102.75 148.73 101.933V100.306ZM155.901 101.665C155.901 102.828 155.702 103.693 155.305 104.259C154.907 104.825 154.286 105.107 153.441 105.107C152.607 105.107 151.989 104.832 151.588 104.28C151.187 103.725 150.979 102.898 150.965 101.799V100.472C150.965 99.3228 151.164 98.4688 151.561 97.9102C151.958 97.3516 152.582 97.0723 153.43 97.0723C154.272 97.0723 154.891 97.3426 155.289 97.8833C155.686 98.4204 155.89 99.2511 155.901 100.375V101.665ZM154.907 100.306C154.907 99.4642 154.789 98.8519 154.553 98.4688C154.316 98.082 153.942 97.8887 153.43 97.8887C152.922 97.8887 152.551 98.0802 152.318 98.4634C152.086 98.8465 151.966 99.4355 151.958 100.23V101.82C151.958 102.665 152.08 103.29 152.324 103.695C152.571 104.096 152.943 104.296 153.441 104.296C153.931 104.296 154.295 104.107 154.531 103.727C154.771 103.347 154.896 102.75 154.907 101.933V100.306ZM157.244 106.558L156.68 106.171C157.016 105.702 157.192 105.218 157.206 104.721V103.824H158.178V104.603C158.178 104.964 158.089 105.326 157.91 105.688C157.734 106.049 157.512 106.339 157.244 106.558ZM166.256 102.374H167.341V103.185H166.256V105H165.257V103.185H161.696V102.599L165.198 97.1797H166.256V102.374ZM162.824 102.374H165.257V98.5386L165.139 98.7534L162.824 102.374ZM173.142 101.665C173.142 102.828 172.943 103.693 172.546 104.259C172.148 104.825 171.527 105.107 170.682 105.107C169.848 105.107 169.23 104.832 168.829 104.28C168.428 103.725 168.22 102.898 168.206 101.799V100.472C168.206 99.3228 168.405 98.4688 168.802 97.9102C169.2 97.3516 169.823 97.0723 170.671 97.0723C171.513 97.0723 172.132 97.3426 172.53 97.8833C172.927 98.4204 173.131 99.2511 173.142 100.375V101.665ZM172.148 100.306C172.148 99.4642 172.03 98.8519 171.794 98.4688C171.558 98.082 171.183 97.8887 170.671 97.8887C170.163 97.8887 169.792 98.0802 169.56 98.4634C169.327 98.8465 169.207 99.4355 169.2 100.23V101.82C169.2 102.665 169.321 103.29 169.565 103.695C169.812 104.096 170.184 104.296 170.682 104.296C171.173 104.296 171.536 104.107 171.772 103.727C172.012 103.347 172.138 102.75 172.148 101.933V100.306ZM178.61 102.374H179.695V103.185H178.61V105H177.611V103.185H174.05V102.599L177.552 97.1797H178.61V102.374ZM175.178 102.374H177.611V98.5386L177.493 98.7534L175.178 102.374ZM182.987 101.879C182.987 102.678 182.882 103.444 182.67 104.178C182.463 104.909 182.142 105.584 181.709 106.203C181.279 106.823 180.828 107.263 180.355 107.524L180.146 106.917C180.697 106.495 181.14 105.84 181.473 104.952C181.809 104.06 181.981 103.072 181.988 101.987V101.815C181.988 101.063 181.91 100.365 181.752 99.7202C181.594 99.0721 181.374 98.492 181.091 97.98C180.812 97.4679 180.497 97.0687 180.146 96.7822L180.355 96.1753C180.828 96.4367 181.278 96.8735 181.704 97.4858C182.133 98.0981 182.454 98.7731 182.665 99.5107C182.88 100.248 182.987 101.038 182.987 101.879Z" fill="black"/>
<rect x="255" y="149" width="90" height="30" fill="#A5DAA1"/>
<path d="M283.634 156.08C283.484 156.055 283.321 156.042 283.146 156.042C282.494 156.042 282.052 156.32 281.819 156.875V161H280.825V155.188H281.792L281.808 155.86C282.134 155.341 282.596 155.081 283.194 155.081C283.387 155.081 283.534 155.106 283.634 155.156V156.08ZM286.857 161.107C286.069 161.107 285.428 160.85 284.934 160.334C284.44 159.815 284.193 159.122 284.193 158.255V158.073C284.193 157.496 284.302 156.982 284.521 156.531C284.743 156.076 285.05 155.722 285.444 155.468C285.842 155.21 286.271 155.081 286.733 155.081C287.489 155.081 288.076 155.33 288.495 155.828C288.914 156.325 289.124 157.038 289.124 157.965V158.379H285.187C285.201 158.952 285.367 159.416 285.686 159.77C286.008 160.121 286.417 160.296 286.911 160.296C287.262 160.296 287.559 160.225 287.802 160.082C288.046 159.938 288.259 159.749 288.441 159.512L289.048 159.985C288.561 160.733 287.831 161.107 286.857 161.107ZM286.733 155.897C286.332 155.897 285.996 156.044 285.724 156.338C285.451 156.628 285.283 157.036 285.219 157.562H288.13V157.487C288.101 156.982 287.965 156.592 287.722 156.316C287.478 156.037 287.149 155.897 286.733 155.897ZM293.662 159.458C293.662 159.19 293.56 158.982 293.356 158.835C293.155 158.685 292.803 158.556 292.298 158.449C291.797 158.341 291.397 158.212 291.1 158.062C290.806 157.912 290.588 157.733 290.445 157.525C290.305 157.317 290.235 157.07 290.235 156.784C290.235 156.307 290.436 155.905 290.837 155.575C291.242 155.246 291.757 155.081 292.384 155.081C293.043 155.081 293.576 155.251 293.984 155.591C294.396 155.931 294.602 156.367 294.602 156.896H293.603C293.603 156.624 293.487 156.39 293.254 156.193C293.025 155.996 292.735 155.897 292.384 155.897C292.022 155.897 291.739 155.976 291.535 156.134C291.331 156.291 291.229 156.497 291.229 156.751C291.229 156.991 291.324 157.172 291.514 157.294C291.703 157.416 292.045 157.532 292.54 157.643C293.037 157.754 293.44 157.887 293.748 158.041C294.056 158.194 294.283 158.381 294.43 158.599C294.581 158.814 294.656 159.077 294.656 159.389C294.656 159.908 294.448 160.325 294.033 160.64C293.617 160.952 293.078 161.107 292.416 161.107C291.951 161.107 291.539 161.025 291.181 160.86C290.823 160.696 290.542 160.466 290.337 160.173C290.137 159.876 290.037 159.555 290.037 159.211H291.03C291.048 159.544 291.181 159.809 291.428 160.006C291.678 160.2 292.008 160.296 292.416 160.296C292.792 160.296 293.093 160.221 293.318 160.071C293.548 159.917 293.662 159.713 293.662 159.458ZM300.859 158.159C300.859 159.043 300.657 159.756 300.252 160.296C299.848 160.837 299.3 161.107 298.609 161.107C297.903 161.107 297.348 160.884 296.944 160.436V163.234H295.95V155.188H296.858L296.906 155.833C297.311 155.332 297.873 155.081 298.593 155.081C299.291 155.081 299.842 155.344 300.247 155.871C300.655 156.397 300.859 157.129 300.859 158.067V158.159ZM299.866 158.046C299.866 157.391 299.726 156.873 299.447 156.494C299.167 156.114 298.784 155.924 298.297 155.924C297.696 155.924 297.245 156.191 296.944 156.725V159.501C297.241 160.031 297.696 160.296 298.308 160.296C298.784 160.296 299.162 160.108 299.441 159.732C299.724 159.353 299.866 158.791 299.866 158.046ZM301.864 158.041C301.864 157.471 301.975 156.959 302.197 156.504C302.422 156.05 302.734 155.699 303.131 155.452C303.532 155.205 303.989 155.081 304.501 155.081C305.292 155.081 305.931 155.355 306.418 155.903C306.909 156.451 307.154 157.179 307.154 158.089V158.159C307.154 158.724 307.045 159.233 306.827 159.684C306.612 160.132 306.302 160.481 305.897 160.731C305.496 160.982 305.035 161.107 304.512 161.107C303.724 161.107 303.085 160.833 302.594 160.286C302.107 159.738 301.864 159.013 301.864 158.11V158.041ZM302.863 158.159C302.863 158.803 303.011 159.321 303.309 159.711C303.609 160.101 304.01 160.296 304.512 160.296C305.017 160.296 305.418 160.099 305.715 159.706C306.012 159.308 306.161 158.753 306.161 158.041C306.161 157.403 306.008 156.888 305.704 156.494C305.403 156.096 305.002 155.897 304.501 155.897C304.01 155.897 303.615 156.093 303.314 156.483C303.013 156.873 302.863 157.432 302.863 158.159ZM309.34 155.188L309.373 155.919C309.817 155.36 310.397 155.081 311.113 155.081C312.341 155.081 312.96 155.774 312.971 157.16V161H311.978V157.154C311.974 156.735 311.877 156.426 311.688 156.225C311.501 156.025 311.209 155.924 310.812 155.924C310.49 155.924 310.207 156.01 309.963 156.182C309.72 156.354 309.53 156.58 309.394 156.859V161H308.4V155.188H309.34ZM314.228 158.046C314.228 157.154 314.439 156.438 314.862 155.897C315.284 155.353 315.838 155.081 316.521 155.081C317.202 155.081 317.741 155.314 318.138 155.779V152.75H319.132V161H318.219L318.17 160.377C317.773 160.864 317.22 161.107 316.511 161.107C315.838 161.107 315.288 160.832 314.862 160.28C314.439 159.729 314.228 159.009 314.228 158.121V158.046ZM315.222 158.159C315.222 158.818 315.358 159.333 315.63 159.706C315.902 160.078 316.278 160.264 316.758 160.264C317.388 160.264 317.848 159.981 318.138 159.416V156.746C317.841 156.198 317.384 155.924 316.769 155.924C316.282 155.924 315.902 156.112 315.63 156.488C315.358 156.864 315.222 157.421 315.222 158.159ZM271.974 174H266.85V173.286L269.557 170.278C269.958 169.823 270.233 169.454 270.384 169.171C270.538 168.885 270.615 168.59 270.615 168.285C270.615 167.877 270.491 167.542 270.244 167.281C269.997 167.019 269.668 166.889 269.256 166.889C268.762 166.889 268.377 167.03 268.101 167.313C267.829 167.592 267.693 167.983 267.693 168.484H266.699C266.699 167.764 266.93 167.182 267.392 166.738C267.858 166.294 268.479 166.072 269.256 166.072C269.983 166.072 270.557 166.264 270.98 166.647C271.403 167.027 271.614 167.533 271.614 168.167C271.614 168.937 271.123 169.854 270.142 170.917L268.047 173.189H271.974V174ZM277.93 170.665C277.93 171.828 277.731 172.693 277.334 173.259C276.937 173.825 276.315 174.107 275.47 174.107C274.636 174.107 274.018 173.832 273.617 173.28C273.216 172.725 273.008 171.898 272.994 170.799V169.472C272.994 168.323 273.193 167.469 273.59 166.91C273.988 166.352 274.611 166.072 275.459 166.072C276.301 166.072 276.92 166.343 277.318 166.883C277.715 167.42 277.919 168.251 277.93 169.375V170.665ZM276.937 169.306C276.937 168.464 276.818 167.852 276.582 167.469C276.346 167.082 275.972 166.889 275.459 166.889C274.951 166.889 274.58 167.08 274.348 167.463C274.115 167.847 273.995 168.436 273.988 169.23V170.82C273.988 171.665 274.11 172.29 274.353 172.695C274.6 173.096 274.972 173.296 275.47 173.296C275.961 173.296 276.324 173.107 276.561 172.727C276.8 172.347 276.926 171.75 276.937 170.933V169.306ZM284.327 174H279.203V173.286L281.91 170.278C282.311 169.823 282.587 169.454 282.737 169.171C282.891 168.885 282.968 168.59 282.968 168.285C282.968 167.877 282.845 167.542 282.598 167.281C282.351 167.019 282.021 166.889 281.609 166.889C281.115 166.889 280.73 167.03 280.455 167.313C280.182 167.592 280.046 167.983 280.046 168.484H279.053C279.053 167.764 279.284 167.182 279.746 166.738C280.211 166.294 280.832 166.072 281.609 166.072C282.336 166.072 282.911 166.264 283.333 166.647C283.756 167.027 283.967 167.533 283.967 168.167C283.967 168.937 283.477 169.854 282.496 170.917L280.401 173.189H284.327V174ZM292.685 171.959H289.408L288.672 174H287.609L290.595 166.18H291.498L294.489 174H293.431L292.685 171.959ZM289.72 171.11H292.378L291.046 167.453L289.72 171.11ZM297.717 173.296C298.072 173.296 298.382 173.189 298.646 172.974C298.911 172.759 299.058 172.491 299.087 172.168H300.027C300.009 172.501 299.894 172.818 299.683 173.119C299.472 173.42 299.189 173.66 298.834 173.839C298.484 174.018 298.111 174.107 297.717 174.107C296.926 174.107 296.296 173.844 295.827 173.318C295.361 172.788 295.128 172.065 295.128 171.148V170.981C295.128 170.416 295.232 169.913 295.44 169.472C295.648 169.032 295.945 168.69 296.332 168.446C296.722 168.203 297.182 168.081 297.712 168.081C298.364 168.081 298.904 168.276 299.334 168.667C299.767 169.057 299.998 169.563 300.027 170.187H299.087C299.058 169.811 298.915 169.503 298.657 169.263C298.403 169.019 298.088 168.897 297.712 168.897C297.207 168.897 296.815 169.08 296.536 169.445C296.26 169.807 296.122 170.332 296.122 171.019V171.207C296.122 171.877 296.26 172.392 296.536 172.754C296.811 173.116 297.205 173.296 297.717 173.296ZM303.475 173.296C303.83 173.296 304.139 173.189 304.404 172.974C304.669 172.759 304.816 172.491 304.845 172.168H305.785C305.767 172.501 305.652 172.818 305.441 173.119C305.23 173.42 304.947 173.66 304.592 173.839C304.241 174.018 303.869 174.107 303.475 174.107C302.684 174.107 302.054 173.844 301.584 173.318C301.119 172.788 300.886 172.065 300.886 171.148V170.981C300.886 170.416 300.99 169.913 301.198 169.472C301.405 169.032 301.703 168.69 302.089 168.446C302.48 168.203 302.94 168.081 303.47 168.081C304.121 168.081 304.662 168.276 305.092 168.667C305.525 169.057 305.756 169.563 305.785 170.187H304.845C304.816 169.811 304.673 169.503 304.415 169.263C304.161 169.019 303.846 168.897 303.47 168.897C302.965 168.897 302.573 169.08 302.293 169.445C302.018 169.807 301.88 170.332 301.88 171.019V171.207C301.88 171.877 302.018 172.392 302.293 172.754C302.569 173.116 302.963 173.296 303.475 173.296ZM309.313 174.107C308.526 174.107 307.885 173.85 307.391 173.334C306.896 172.815 306.649 172.122 306.649 171.255V171.073C306.649 170.496 306.759 169.982 306.977 169.531C307.199 169.076 307.507 168.722 307.901 168.468C308.298 168.21 308.728 168.081 309.19 168.081C309.945 168.081 310.533 168.33 310.952 168.828C311.371 169.325 311.58 170.038 311.58 170.965V171.379H307.643C307.657 171.952 307.824 172.416 308.143 172.77C308.465 173.121 308.873 173.296 309.367 173.296C309.718 173.296 310.015 173.225 310.259 173.082C310.502 172.938 310.715 172.749 310.898 172.512L311.505 172.985C311.018 173.733 310.287 174.107 309.313 174.107ZM309.19 168.897C308.789 168.897 308.452 169.044 308.18 169.338C307.908 169.628 307.74 170.036 307.675 170.562H310.586V170.487C310.558 169.982 310.422 169.592 310.178 169.316C309.935 169.037 309.605 168.897 309.19 168.897ZM317.644 171.159C317.644 172.043 317.442 172.756 317.037 173.296C316.632 173.837 316.085 174.107 315.394 174.107C314.688 174.107 314.133 173.884 313.729 173.436V176.234H312.735V168.188H313.643L313.691 168.833C314.096 168.332 314.658 168.081 315.377 168.081C316.076 168.081 316.627 168.344 317.032 168.871C317.44 169.397 317.644 170.129 317.644 171.067V171.159ZM316.65 171.046C316.65 170.391 316.511 169.873 316.231 169.494C315.952 169.114 315.569 168.924 315.082 168.924C314.48 168.924 314.029 169.191 313.729 169.725V172.501C314.026 173.031 314.48 173.296 315.093 173.296C315.569 173.296 315.947 173.108 316.226 172.732C316.509 172.353 316.65 171.791 316.65 171.046ZM320.26 166.781V168.188H321.345V168.957H320.26V172.561C320.26 172.793 320.308 172.969 320.405 173.087C320.501 173.201 320.666 173.259 320.899 173.259C321.014 173.259 321.171 173.237 321.372 173.194V174C321.11 174.072 320.856 174.107 320.609 174.107C320.165 174.107 319.83 173.973 319.604 173.705C319.379 173.436 319.266 173.055 319.266 172.561V168.957H318.208V168.188H319.266V166.781H320.26ZM324.922 174.107C324.134 174.107 323.493 173.85 322.999 173.334C322.505 172.815 322.258 172.122 322.258 171.255V171.073C322.258 170.496 322.367 169.982 322.585 169.531C322.807 169.076 323.115 168.722 323.509 168.468C323.907 168.21 324.336 168.081 324.798 168.081C325.554 168.081 326.141 168.33 326.56 168.828C326.979 169.325 327.188 170.038 327.188 170.965V171.379H323.251C323.266 171.952 323.432 172.416 323.751 172.77C324.073 173.121 324.481 173.296 324.976 173.296C325.326 173.296 325.624 173.225 325.867 173.082C326.111 172.938 326.324 172.749 326.506 172.512L327.113 172.985C326.626 173.733 325.896 174.107 324.922 174.107ZM324.798 168.897C324.397 168.897 324.061 169.044 323.789 169.338C323.516 169.628 323.348 170.036 323.284 170.562H326.195V170.487C326.166 169.982 326.03 169.592 325.787 169.316C325.543 169.037 325.214 168.897 324.798 168.897ZM328.102 171.046C328.102 170.154 328.313 169.438 328.735 168.897C329.158 168.353 329.711 168.081 330.395 168.081C331.075 168.081 331.614 168.314 332.012 168.779V165.75H333.005V174H332.092L332.044 173.377C331.646 173.864 331.093 174.107 330.384 174.107C329.711 174.107 329.161 173.832 328.735 173.28C328.313 172.729 328.102 172.009 328.102 171.121V171.046ZM329.095 171.159C329.095 171.818 329.231 172.333 329.503 172.706C329.776 173.078 330.152 173.264 330.631 173.264C331.262 173.264 331.722 172.981 332.012 172.416V169.746C331.715 169.198 331.258 168.924 330.642 168.924C330.155 168.924 329.776 169.112 329.503 169.488C329.231 169.864 329.095 170.421 329.095 171.159Z" fill="black"/>
<rect x="396" y="149" width="90" height="30" fill="#93ACED"/>
<path d="M413.5 168C413.443 167.885 413.396 167.681 413.36 167.388C412.898 167.868 412.347 168.107 411.706 168.107C411.133 168.107 410.662 167.946 410.293 167.624C409.928 167.298 409.746 166.886 409.746 166.389C409.746 165.784 409.975 165.314 410.433 164.981C410.895 164.645 411.543 164.477 412.377 164.477H413.344V164.02C413.344 163.673 413.24 163.397 413.033 163.193C412.825 162.985 412.519 162.881 412.114 162.881C411.76 162.881 411.463 162.971 411.223 163.15C410.983 163.329 410.863 163.546 410.863 163.8H409.864C409.864 163.51 409.966 163.23 410.17 162.962C410.378 162.69 410.657 162.475 411.008 162.317C411.362 162.16 411.751 162.081 412.173 162.081C412.843 162.081 413.368 162.249 413.747 162.586C414.127 162.919 414.324 163.379 414.338 163.966V166.641C414.338 167.175 414.406 167.599 414.542 167.914V168H413.5ZM411.851 167.243C412.163 167.243 412.458 167.162 412.737 167.001C413.017 166.84 413.219 166.63 413.344 166.373V165.18H412.565C411.348 165.18 410.739 165.536 410.739 166.249C410.739 166.561 410.843 166.804 411.051 166.979C411.258 167.155 411.525 167.243 411.851 167.243ZM415.654 165.046C415.654 164.154 415.865 163.438 416.288 162.897C416.71 162.353 417.263 162.081 417.947 162.081C418.628 162.081 419.167 162.314 419.564 162.779V159.75H420.558V168H419.645L419.596 167.377C419.199 167.864 418.646 168.107 417.937 168.107C417.263 168.107 416.714 167.832 416.288 167.28C415.865 166.729 415.654 166.009 415.654 165.121V165.046ZM416.647 165.159C416.647 165.818 416.784 166.333 417.056 166.706C417.328 167.078 417.704 167.264 418.184 167.264C418.814 167.264 419.274 166.981 419.564 166.416V163.746C419.267 163.198 418.81 162.924 418.194 162.924C417.707 162.924 417.328 163.112 417.056 163.488C416.784 163.864 416.647 164.421 416.647 165.159ZM421.863 165.046C421.863 164.154 422.074 163.438 422.497 162.897C422.919 162.353 423.472 162.081 424.156 162.081C424.837 162.081 425.375 162.314 425.773 162.779V159.75H426.767V168H425.854L425.805 167.377C425.408 167.864 424.854 168.107 424.146 168.107C423.472 168.107 422.923 167.832 422.497 167.28C422.074 166.729 421.863 166.009 421.863 165.121V165.046ZM422.856 165.159C422.856 165.818 422.993 166.333 423.265 166.706C423.537 167.078 423.913 167.264 424.393 167.264C425.023 167.264 425.483 166.981 425.773 166.416V163.746C425.476 163.198 425.019 162.924 424.403 162.924C423.916 162.924 423.537 163.112 423.265 163.488C422.993 163.864 422.856 164.421 422.856 165.159ZM432.39 160.781V162.188H433.475V162.957H432.39V166.561C432.39 166.793 432.438 166.969 432.535 167.087C432.632 167.201 432.797 167.259 433.029 167.259C433.144 167.259 433.301 167.237 433.502 167.194V168C433.241 168.072 432.986 168.107 432.739 168.107C432.295 168.107 431.96 167.973 431.735 167.705C431.509 167.436 431.396 167.055 431.396 166.561V162.957H430.338V162.188H431.396V160.781H432.39ZM434.27 165.041C434.27 164.471 434.381 163.959 434.603 163.504C434.829 163.05 435.14 162.699 435.538 162.452C435.939 162.205 436.395 162.081 436.907 162.081C437.699 162.081 438.338 162.355 438.825 162.903C439.315 163.451 439.561 164.179 439.561 165.089V165.159C439.561 165.724 439.451 166.233 439.233 166.684C439.018 167.132 438.708 167.481 438.304 167.731C437.903 167.982 437.441 168.107 436.918 168.107C436.13 168.107 435.491 167.833 435 167.286C434.514 166.738 434.27 166.013 434.27 165.11V165.041ZM435.269 165.159C435.269 165.803 435.418 166.321 435.715 166.711C436.016 167.101 436.417 167.296 436.918 167.296C437.423 167.296 437.824 167.099 438.121 166.706C438.418 166.308 438.567 165.753 438.567 165.041C438.567 164.403 438.415 163.888 438.11 163.494C437.81 163.096 437.409 162.897 436.907 162.897C436.417 162.897 436.021 163.093 435.72 163.483C435.419 163.873 435.269 164.432 435.269 165.159ZM443.293 165.046C443.293 164.133 443.503 163.411 443.922 162.881C444.341 162.348 444.903 162.081 445.608 162.081C446.296 162.081 446.838 162.312 447.236 162.774L447.279 162.188H448.192V170.234H447.198V167.463C446.797 167.893 446.264 168.107 445.598 168.107C444.896 168.107 444.335 167.835 443.917 167.291C443.501 166.743 443.293 166.018 443.293 165.116V165.046ZM444.287 165.159C444.287 165.825 444.427 166.347 444.706 166.727C444.989 167.107 445.368 167.296 445.845 167.296C446.436 167.296 446.887 167.035 447.198 166.512V163.666C446.883 163.153 446.436 162.897 445.855 162.897C445.376 162.897 444.994 163.089 444.711 163.472C444.429 163.852 444.287 164.414 444.287 165.159ZM453.375 167.425C452.988 167.88 452.421 168.107 451.672 168.107C451.053 168.107 450.58 167.928 450.254 167.57C449.932 167.209 449.769 166.675 449.766 165.97V162.188H450.759V165.943C450.759 166.824 451.117 167.264 451.833 167.264C452.593 167.264 453.097 166.981 453.348 166.416V162.188H454.342V168H453.396L453.375 167.425ZM458.268 168.107C457.48 168.107 456.839 167.85 456.345 167.334C455.851 166.815 455.604 166.122 455.604 165.255V165.073C455.604 164.496 455.713 163.982 455.932 163.531C456.154 163.076 456.462 162.722 456.855 162.468C457.253 162.21 457.683 162.081 458.145 162.081C458.9 162.081 459.487 162.33 459.906 162.828C460.325 163.325 460.535 164.038 460.535 164.965V165.379H456.598C456.612 165.952 456.778 166.416 457.097 166.77C457.419 167.121 457.828 167.296 458.322 167.296C458.673 167.296 458.97 167.225 459.213 167.082C459.457 166.938 459.67 166.749 459.853 166.512L460.459 166.985C459.972 167.733 459.242 168.107 458.268 168.107ZM458.145 162.897C457.743 162.897 457.407 163.044 457.135 163.338C456.863 163.628 456.694 164.036 456.63 164.562H459.541V164.487C459.512 163.982 459.376 163.592 459.133 163.316C458.889 163.037 458.56 162.897 458.145 162.897ZM465.277 167.425C464.891 167.88 464.323 168.107 463.575 168.107C462.955 168.107 462.483 167.928 462.157 167.57C461.834 167.209 461.672 166.675 461.668 165.97V162.188H462.662V165.943C462.662 166.824 463.02 167.264 463.736 167.264C464.495 167.264 465 166.981 465.25 166.416V162.188H466.244V168H465.299L465.277 167.425ZM470.17 168.107C469.383 168.107 468.742 167.85 468.248 167.334C467.753 166.815 467.506 166.122 467.506 165.255V165.073C467.506 164.496 467.616 163.982 467.834 163.531C468.056 163.076 468.364 162.722 468.758 162.468C469.155 162.21 469.585 162.081 470.047 162.081C470.802 162.081 471.39 162.33 471.809 162.828C472.228 163.325 472.437 164.038 472.437 164.965V165.379H468.5C468.514 165.952 468.681 166.416 469 166.77C469.322 167.121 469.73 167.296 470.224 167.296C470.575 167.296 470.872 167.225 471.116 167.082C471.359 166.938 471.572 166.749 471.755 166.512L472.362 166.985C471.875 167.733 471.144 168.107 470.17 168.107ZM470.047 162.897C469.646 162.897 469.309 163.044 469.037 163.338C468.765 163.628 468.597 164.036 468.532 164.562H471.443V164.487C471.415 163.982 471.279 163.592 471.035 163.316C470.792 163.037 470.462 162.897 470.047 162.897Z" fill="black"/>
<rect x="396" y="220" width="90" height="30" fill="#93ACED"/>
<path d="M414.907 229.159C414.907 230.043 414.705 230.756 414.3 231.296C413.896 231.837 413.348 232.107 412.657 232.107C411.951 232.107 411.396 231.884 410.992 231.436V234.234H409.998V226.188H410.906L410.954 226.833C411.359 226.332 411.921 226.081 412.641 226.081C413.339 226.081 413.89 226.344 414.295 226.871C414.703 227.397 414.907 228.129 414.907 229.067V229.159ZM413.914 229.046C413.914 228.391 413.774 227.873 413.495 227.494C413.215 227.114 412.832 226.924 412.345 226.924C411.744 226.924 411.292 227.191 410.992 227.725V230.501C411.289 231.031 411.744 231.296 412.356 231.296C412.832 231.296 413.21 231.108 413.489 230.732C413.772 230.353 413.914 229.791 413.914 229.046ZM418.984 227.08C418.833 227.055 418.671 227.042 418.495 227.042C417.843 227.042 417.401 227.32 417.168 227.875V232H416.175V226.188H417.142L417.158 226.86C417.484 226.341 417.945 226.081 418.543 226.081C418.737 226.081 418.884 226.106 418.984 226.156V227.08ZM419.532 229.041C419.532 228.471 419.643 227.959 419.865 227.504C420.09 227.05 420.402 226.699 420.799 226.452C421.2 226.205 421.657 226.081 422.169 226.081C422.96 226.081 423.599 226.355 424.086 226.903C424.577 227.451 424.822 228.179 424.822 229.089V229.159C424.822 229.724 424.713 230.233 424.495 230.684C424.28 231.132 423.97 231.481 423.565 231.731C423.164 231.982 422.702 232.107 422.18 232.107C421.392 232.107 420.753 231.833 420.262 231.286C419.775 230.738 419.532 230.013 419.532 229.11V229.041ZM420.531 229.159C420.531 229.803 420.679 230.321 420.977 230.711C421.277 231.101 421.678 231.296 422.18 231.296C422.685 231.296 423.086 231.099 423.383 230.706C423.68 230.308 423.829 229.753 423.829 229.041C423.829 228.403 423.676 227.888 423.372 227.494C423.071 227.096 422.67 226.897 422.169 226.897C421.678 226.897 421.283 227.093 420.982 227.483C420.681 227.873 420.531 228.432 420.531 229.159ZM428.399 231.296C428.754 231.296 429.064 231.189 429.329 230.974C429.594 230.759 429.74 230.491 429.769 230.168H430.709C430.691 230.501 430.576 230.818 430.365 231.119C430.154 231.42 429.871 231.66 429.517 231.839C429.166 232.018 428.793 232.107 428.399 232.107C427.608 232.107 426.978 231.844 426.509 231.318C426.043 230.788 425.811 230.065 425.811 229.148V228.981C425.811 228.416 425.914 227.913 426.122 227.472C426.33 227.032 426.627 226.69 427.014 226.446C427.404 226.203 427.864 226.081 428.394 226.081C429.046 226.081 429.586 226.276 430.016 226.667C430.449 227.057 430.68 227.563 430.709 228.187H429.769C429.74 227.811 429.597 227.503 429.339 227.263C429.085 227.019 428.77 226.897 428.394 226.897C427.889 226.897 427.497 227.08 427.218 227.445C426.942 227.807 426.804 228.332 426.804 229.019V229.207C426.804 229.877 426.942 230.392 427.218 230.754C427.493 231.116 427.887 231.296 428.399 231.296ZM434.238 232.107C433.45 232.107 432.809 231.85 432.315 231.334C431.821 230.815 431.574 230.122 431.574 229.255V229.073C431.574 228.496 431.683 227.982 431.901 227.531C432.123 227.076 432.431 226.722 432.825 226.468C433.223 226.21 433.652 226.081 434.114 226.081C434.87 226.081 435.457 226.33 435.876 226.828C436.295 227.325 436.504 228.038 436.504 228.965V229.379H432.567C432.582 229.952 432.748 230.416 433.067 230.77C433.389 231.121 433.797 231.296 434.292 231.296C434.642 231.296 434.94 231.225 435.183 231.082C435.427 230.938 435.64 230.749 435.822 230.512L436.429 230.985C435.942 231.733 435.212 232.107 434.238 232.107ZM434.114 226.897C433.713 226.897 433.377 227.044 433.104 227.338C432.832 227.628 432.664 228.036 432.6 228.562H435.511V228.487C435.482 227.982 435.346 227.592 435.103 227.316C434.859 227.037 434.53 226.897 434.114 226.897ZM441.043 230.458C441.043 230.19 440.941 229.982 440.737 229.835C440.536 229.685 440.184 229.556 439.679 229.449C439.177 229.341 438.778 229.212 438.481 229.062C438.187 228.912 437.969 228.733 437.826 228.525C437.686 228.317 437.616 228.07 437.616 227.784C437.616 227.307 437.817 226.905 438.218 226.575C438.622 226.246 439.138 226.081 439.765 226.081C440.424 226.081 440.957 226.251 441.365 226.591C441.777 226.931 441.983 227.367 441.983 227.896H440.984C440.984 227.624 440.868 227.39 440.635 227.193C440.406 226.996 440.116 226.897 439.765 226.897C439.403 226.897 439.12 226.976 438.916 227.134C438.712 227.291 438.61 227.497 438.61 227.751C438.61 227.991 438.705 228.172 438.895 228.294C439.084 228.416 439.426 228.532 439.92 228.643C440.418 228.754 440.821 228.887 441.129 229.041C441.437 229.194 441.664 229.381 441.811 229.599C441.961 229.814 442.037 230.077 442.037 230.389C442.037 230.908 441.829 231.325 441.414 231.64C440.998 231.952 440.459 232.107 439.797 232.107C439.331 232.107 438.92 232.025 438.562 231.86C438.203 231.696 437.922 231.466 437.718 231.173C437.518 230.876 437.417 230.555 437.417 230.211H438.411C438.429 230.544 438.562 230.809 438.809 231.006C439.059 231.2 439.389 231.296 439.797 231.296C440.173 231.296 440.474 231.221 440.699 231.071C440.928 230.917 441.043 230.713 441.043 230.458ZM446.715 230.458C446.715 230.19 446.613 229.982 446.409 229.835C446.208 229.685 445.855 229.556 445.351 229.449C444.849 229.341 444.45 229.212 444.153 229.062C443.859 228.912 443.641 228.733 443.498 228.525C443.358 228.317 443.288 228.07 443.288 227.784C443.288 227.307 443.489 226.905 443.89 226.575C444.294 226.246 444.81 226.081 445.437 226.081C446.095 226.081 446.629 226.251 447.037 226.591C447.449 226.931 447.655 227.367 447.655 227.896H446.656C446.656 227.624 446.539 227.39 446.307 227.193C446.077 226.996 445.787 226.897 445.437 226.897C445.075 226.897 444.792 226.976 444.588 227.134C444.384 227.291 444.282 227.497 444.282 227.751C444.282 227.991 444.377 228.172 444.566 228.294C444.756 228.416 445.098 228.532 445.592 228.643C446.09 228.754 446.493 228.887 446.801 229.041C447.109 229.194 447.336 229.381 447.483 229.599C447.633 229.814 447.708 230.077 447.708 230.389C447.708 230.908 447.501 231.325 447.085 231.64C446.67 231.952 446.131 232.107 445.469 232.107C445.003 232.107 444.591 232.025 444.233 231.86C443.875 231.696 443.594 231.466 443.39 231.173C443.19 230.876 443.089 230.555 443.089 230.211H444.083C444.101 230.544 444.233 230.809 444.48 231.006C444.731 231.2 445.061 231.296 445.469 231.296C445.845 231.296 446.146 231.221 446.371 231.071C446.6 230.917 446.715 230.713 446.715 230.458ZM451.49 229.046C451.49 228.154 451.701 227.438 452.124 226.897C452.546 226.353 453.099 226.081 453.783 226.081C454.464 226.081 455.002 226.314 455.4 226.779V223.75H456.394V232H455.48L455.432 231.377C455.035 231.864 454.481 232.107 453.772 232.107C453.099 232.107 452.55 231.832 452.124 231.28C451.701 230.729 451.49 230.009 451.49 229.121V229.046ZM452.483 229.159C452.483 229.818 452.619 230.333 452.892 230.706C453.164 231.078 453.54 231.264 454.02 231.264C454.65 231.264 455.11 230.981 455.4 230.416V227.746C455.103 227.198 454.646 226.924 454.03 226.924C453.543 226.924 453.164 227.112 452.892 227.488C452.619 227.864 452.483 228.421 452.483 229.159ZM461.528 232C461.471 231.885 461.424 231.681 461.389 231.388C460.927 231.868 460.375 232.107 459.734 232.107C459.161 232.107 458.691 231.946 458.322 231.624C457.957 231.298 457.774 230.886 457.774 230.389C457.774 229.784 458.003 229.314 458.461 228.981C458.923 228.645 459.571 228.477 460.406 228.477H461.373V228.02C461.373 227.673 461.269 227.397 461.061 227.193C460.853 226.985 460.547 226.881 460.143 226.881C459.788 226.881 459.491 226.971 459.251 227.15C459.011 227.329 458.891 227.546 458.891 227.8H457.892C457.892 227.51 457.994 227.23 458.198 226.962C458.406 226.69 458.685 226.475 459.036 226.317C459.391 226.16 459.779 226.081 460.202 226.081C460.871 226.081 461.396 226.249 461.775 226.586C462.155 226.919 462.352 227.379 462.366 227.966V230.641C462.366 231.175 462.434 231.599 462.57 231.914V232H461.528ZM459.879 231.243C460.191 231.243 460.486 231.162 460.766 231.001C461.045 230.84 461.247 230.63 461.373 230.373V229.18H460.594C459.376 229.18 458.768 229.536 458.768 230.249C458.768 230.561 458.871 230.804 459.079 230.979C459.287 231.155 459.554 231.243 459.879 231.243ZM465.272 224.781V226.188H466.357V226.957H465.272V230.561C465.272 230.793 465.32 230.969 465.417 231.087C465.514 231.201 465.678 231.259 465.911 231.259C466.026 231.259 466.183 231.237 466.384 231.194V232C466.122 232.072 465.868 232.107 465.621 232.107C465.177 232.107 464.842 231.973 464.617 231.705C464.391 231.436 464.278 231.055 464.278 230.561V226.957H463.22V226.188H464.278V224.781H465.272ZM471.11 232C471.053 231.885 471.007 231.681 470.971 231.388C470.509 231.868 469.957 232.107 469.316 232.107C468.743 232.107 468.273 231.946 467.904 231.624C467.539 231.298 467.356 230.886 467.356 230.389C467.356 229.784 467.585 229.314 468.043 228.981C468.505 228.645 469.153 228.477 469.988 228.477H470.955V228.02C470.955 227.673 470.851 227.397 470.643 227.193C470.435 226.985 470.129 226.881 469.725 226.881C469.37 226.881 469.073 226.971 468.833 227.15C468.593 227.329 468.473 227.546 468.473 227.8H467.474C467.474 227.51 467.576 227.23 467.78 226.962C467.988 226.69 468.267 226.475 468.618 226.317C468.973 226.16 469.361 226.081 469.784 226.081C470.453 226.081 470.978 226.249 471.357 226.586C471.737 226.919 471.934 227.379 471.948 227.966V230.641C471.948 231.175 472.016 231.599 472.152 231.914V232H471.11ZM469.461 231.243C469.773 231.243 470.068 231.162 470.348 231.001C470.627 230.84 470.829 230.63 470.955 230.373V229.18H470.176C468.958 229.18 468.35 229.536 468.35 230.249C468.35 230.561 468.453 230.804 468.661 230.979C468.869 231.155 469.136 231.243 469.461 231.243ZM420.445 245H419.451V239.188H420.445V245ZM419.371 237.647C419.371 237.486 419.419 237.35 419.516 237.239C419.616 237.128 419.763 237.072 419.956 237.072C420.149 237.072 420.296 237.128 420.396 237.239C420.497 237.35 420.547 237.486 420.547 237.647C420.547 237.808 420.497 237.942 420.396 238.05C420.296 238.157 420.149 238.211 419.956 238.211C419.763 238.211 419.616 238.157 419.516 238.05C419.419 237.942 419.371 237.808 419.371 237.647ZM422.98 239.188L423.012 239.919C423.456 239.36 424.036 239.081 424.752 239.081C425.981 239.081 426.6 239.774 426.611 241.16V245H425.617V241.154C425.614 240.735 425.517 240.426 425.327 240.225C425.141 240.025 424.849 239.924 424.452 239.924C424.129 239.924 423.847 240.01 423.603 240.182C423.36 240.354 423.17 240.58 423.034 240.859V245H422.04V239.188H422.98ZM435.983 243.63L437.101 239.188H438.094L436.402 245H435.597L434.184 240.596L432.809 245H432.003L430.317 239.188H431.305L432.449 243.539L433.803 239.188H434.603L435.983 243.63ZM438.846 242.041C438.846 241.471 438.957 240.959 439.179 240.504C439.405 240.05 439.716 239.699 440.114 239.452C440.515 239.205 440.971 239.081 441.483 239.081C442.275 239.081 442.914 239.355 443.401 239.903C443.891 240.451 444.137 241.179 444.137 242.089V242.159C444.137 242.724 444.028 243.233 443.809 243.684C443.594 244.132 443.285 244.481 442.88 244.731C442.479 244.982 442.017 245.107 441.494 245.107C440.706 245.107 440.067 244.833 439.577 244.286C439.09 243.738 438.846 243.013 438.846 242.11V242.041ZM439.845 242.159C439.845 242.803 439.994 243.321 440.291 243.711C440.592 244.101 440.993 244.296 441.494 244.296C441.999 244.296 442.4 244.099 442.697 243.706C442.994 243.308 443.143 242.753 443.143 242.041C443.143 241.403 442.991 240.888 442.687 240.494C442.386 240.096 441.985 239.897 441.483 239.897C440.993 239.897 440.597 240.093 440.296 240.483C439.996 240.873 439.845 241.432 439.845 242.159ZM448.192 240.08C448.042 240.055 447.879 240.042 447.703 240.042C447.051 240.042 446.609 240.32 446.376 240.875V245H445.383V239.188H446.35L446.366 239.86C446.692 239.341 447.153 239.081 447.751 239.081C447.945 239.081 448.092 239.106 448.192 239.156V240.08ZM450.732 242.309L450.109 242.959V245H449.116V236.75H450.109V241.74L450.641 241.101L452.451 239.188H453.66L451.398 241.616L453.923 245H452.757L450.732 242.309ZM456.99 245.107C456.202 245.107 455.561 244.85 455.067 244.334C454.573 243.815 454.326 243.122 454.326 242.255V242.073C454.326 241.496 454.435 240.982 454.653 240.531C454.875 240.076 455.183 239.722 455.577 239.468C455.975 239.21 456.404 239.081 456.866 239.081C457.622 239.081 458.209 239.33 458.628 239.828C459.047 240.325 459.256 241.038 459.256 241.965V242.379H455.319C455.334 242.952 455.5 243.416 455.819 243.77C456.141 244.121 456.549 244.296 457.043 244.296C457.394 244.296 457.692 244.225 457.935 244.082C458.179 243.938 458.392 243.749 458.574 243.512L459.181 243.985C458.694 244.733 457.964 245.107 456.99 245.107ZM456.866 239.897C456.465 239.897 456.129 240.044 455.856 240.338C455.584 240.628 455.416 241.036 455.352 241.562H458.263V241.487C458.234 240.982 458.098 240.592 457.854 240.316C457.611 240.037 457.282 239.897 456.866 239.897ZM463.22 240.08C463.07 240.055 462.907 240.042 462.731 240.042C462.08 240.042 461.638 240.32 461.405 240.875V245H460.411V239.188H461.378L461.394 239.86C461.72 239.341 462.182 239.081 462.78 239.081C462.973 239.081 463.12 239.106 463.22 239.156V240.08Z" fill="black"/>
<rect x="396" y="291" width="90" height="30" fill="#93ACED"/>
<path d="M410.057 310C410 309.885 409.953 309.681 409.917 309.388C409.456 309.868 408.904 310.107 408.263 310.107C407.69 310.107 407.219 309.946 406.851 309.624C406.485 309.298 406.303 308.886 406.303 308.389C406.303 307.784 406.532 307.314 406.99 306.981C407.452 306.645 408.1 306.477 408.935 306.477H409.901V306.02C409.901 305.673 409.798 305.397 409.59 305.193C409.382 304.985 409.076 304.881 408.671 304.881C408.317 304.881 408.02 304.971 407.78 305.15C407.54 305.329 407.42 305.546 407.42 305.8H406.421C406.421 305.51 406.523 305.23 406.727 304.962C406.935 304.69 407.214 304.475 407.565 304.317C407.919 304.16 408.308 304.081 408.73 304.081C409.4 304.081 409.925 304.249 410.304 304.586C410.684 304.919 410.881 305.379 410.895 305.966V308.641C410.895 309.175 410.963 309.599 411.099 309.914V310H410.057ZM408.408 309.243C408.72 309.243 409.015 309.162 409.294 309.001C409.574 308.84 409.776 308.63 409.901 308.373V307.18H409.123C407.905 307.18 407.296 307.536 407.296 308.249C407.296 308.561 407.4 308.804 407.608 308.979C407.816 309.155 408.082 309.243 408.408 309.243ZM412.211 307.046C412.211 306.154 412.422 305.438 412.845 304.897C413.267 304.353 413.82 304.081 414.504 304.081C415.185 304.081 415.724 304.314 416.121 304.779V301.75H417.115V310H416.202L416.153 309.377C415.756 309.864 415.203 310.107 414.494 310.107C413.82 310.107 413.271 309.832 412.845 309.28C412.422 308.729 412.211 308.009 412.211 307.121V307.046ZM413.205 307.159C413.205 307.818 413.341 308.333 413.613 308.706C413.885 309.078 414.261 309.264 414.741 309.264C415.371 309.264 415.831 308.981 416.121 308.416V305.746C415.824 305.198 415.367 304.924 414.751 304.924C414.264 304.924 413.885 305.112 413.613 305.488C413.341 305.864 413.205 306.421 413.205 307.159ZM418.42 307.046C418.42 306.154 418.631 305.438 419.054 304.897C419.476 304.353 420.029 304.081 420.713 304.081C421.394 304.081 421.933 304.314 422.33 304.779V301.75H423.324V310H422.411L422.362 309.377C421.965 309.864 421.412 310.107 420.703 310.107C420.029 310.107 419.48 309.832 419.054 309.28C418.631 308.729 418.42 308.009 418.42 307.121V307.046ZM419.414 307.159C419.414 307.818 419.55 308.333 419.822 308.706C420.094 309.078 420.47 309.264 420.95 309.264C421.58 309.264 422.04 308.981 422.33 308.416V305.746C422.033 305.198 421.576 304.924 420.96 304.924C420.473 304.924 420.094 305.112 419.822 305.488C419.55 305.864 419.414 306.421 419.414 307.159ZM428.947 302.781V304.188H430.032V304.957H428.947V308.561C428.947 308.793 428.996 308.969 429.092 309.087C429.189 309.201 429.354 309.259 429.586 309.259C429.701 309.259 429.859 309.237 430.059 309.194V310C429.798 310.072 429.543 310.107 429.296 310.107C428.852 310.107 428.518 309.973 428.292 309.705C428.066 309.436 427.954 309.055 427.954 308.561V304.957H426.896V304.188H427.954V302.781H428.947ZM430.827 307.041C430.827 306.471 430.938 305.959 431.16 305.504C431.386 305.05 431.697 304.699 432.095 304.452C432.496 304.205 432.952 304.081 433.464 304.081C434.256 304.081 434.895 304.355 435.382 304.903C435.872 305.451 436.118 306.179 436.118 307.089V307.159C436.118 307.724 436.008 308.233 435.79 308.684C435.575 309.132 435.265 309.481 434.861 309.731C434.46 309.982 433.998 310.107 433.475 310.107C432.687 310.107 432.048 309.833 431.558 309.286C431.071 308.738 430.827 308.013 430.827 307.11V307.041ZM431.826 307.159C431.826 307.803 431.975 308.321 432.272 308.711C432.573 309.101 432.974 309.296 433.475 309.296C433.98 309.296 434.381 309.099 434.678 308.706C434.975 308.308 435.124 307.753 435.124 307.041C435.124 306.403 434.972 305.888 434.667 305.494C434.367 305.096 433.966 304.897 433.464 304.897C432.974 304.897 432.578 305.093 432.277 305.483C431.977 305.873 431.826 306.432 431.826 307.159ZM443.476 308.458C443.476 308.19 443.374 307.982 443.17 307.835C442.969 307.685 442.617 307.556 442.112 307.449C441.611 307.341 441.211 307.212 440.914 307.062C440.62 306.912 440.402 306.733 440.259 306.525C440.119 306.317 440.049 306.07 440.049 305.784C440.049 305.307 440.25 304.905 440.651 304.575C441.056 304.246 441.571 304.081 442.198 304.081C442.857 304.081 443.39 304.251 443.798 304.591C444.21 304.931 444.416 305.367 444.416 305.896H443.417C443.417 305.624 443.301 305.39 443.068 305.193C442.839 304.996 442.549 304.897 442.198 304.897C441.836 304.897 441.553 304.976 441.349 305.134C441.145 305.291 441.043 305.497 441.043 305.751C441.043 305.991 441.138 306.172 441.328 306.294C441.517 306.416 441.859 306.532 442.354 306.643C442.851 306.754 443.254 306.887 443.562 307.041C443.87 307.194 444.097 307.381 444.244 307.599C444.395 307.814 444.47 308.077 444.47 308.389C444.47 308.908 444.262 309.325 443.847 309.64C443.431 309.952 442.892 310.107 442.23 310.107C441.764 310.107 441.353 310.025 440.995 309.86C440.637 309.696 440.355 309.466 440.151 309.173C439.951 308.876 439.851 308.555 439.851 308.211H440.844C440.862 308.544 440.995 308.809 441.242 309.006C441.492 309.2 441.822 309.296 442.23 309.296C442.606 309.296 442.907 309.221 443.132 309.071C443.361 308.917 443.476 308.713 443.476 308.458ZM447.112 302.781V304.188H448.197V304.957H447.112V308.561C447.112 308.793 447.161 308.969 447.257 309.087C447.354 309.201 447.519 309.259 447.751 309.259C447.866 309.259 448.024 309.237 448.224 309.194V310C447.963 310.072 447.708 310.107 447.461 310.107C447.017 310.107 446.683 309.973 446.457 309.705C446.231 309.436 446.119 309.055 446.119 308.561V304.957H445.061V304.188H446.119V302.781H447.112ZM448.992 307.041C448.992 306.471 449.103 305.959 449.325 305.504C449.551 305.05 449.862 304.699 450.26 304.452C450.661 304.205 451.117 304.081 451.629 304.081C452.421 304.081 453.06 304.355 453.547 304.903C454.037 305.451 454.283 306.179 454.283 307.089V307.159C454.283 307.724 454.174 308.233 453.955 308.684C453.74 309.132 453.431 309.481 453.026 309.731C452.625 309.982 452.163 310.107 451.64 310.107C450.852 310.107 450.213 309.833 449.723 309.286C449.236 308.738 448.992 308.013 448.992 307.11V307.041ZM449.991 307.159C449.991 307.803 450.14 308.321 450.437 308.711C450.738 309.101 451.139 309.296 451.64 309.296C452.145 309.296 452.546 309.099 452.843 308.706C453.14 308.308 453.289 307.753 453.289 307.041C453.289 306.403 453.137 305.888 452.833 305.494C452.532 305.096 452.131 304.897 451.629 304.897C451.139 304.897 450.743 305.093 450.442 305.483C450.142 305.873 449.991 306.432 449.991 307.159ZM458.338 305.08C458.188 305.055 458.025 305.042 457.849 305.042C457.197 305.042 456.755 305.32 456.522 305.875V310H455.529V304.188H456.496L456.512 304.86C456.838 304.341 457.299 304.081 457.897 304.081C458.091 304.081 458.238 304.106 458.338 304.156V305.08ZM462.629 310C462.572 309.885 462.526 309.681 462.49 309.388C462.028 309.868 461.476 310.107 460.835 310.107C460.263 310.107 459.792 309.946 459.423 309.624C459.058 309.298 458.875 308.886 458.875 308.389C458.875 307.784 459.104 307.314 459.562 306.981C460.024 306.645 460.673 306.477 461.507 306.477H462.474V306.02C462.474 305.673 462.37 305.397 462.162 305.193C461.954 304.985 461.648 304.881 461.244 304.881C460.889 304.881 460.592 304.971 460.352 305.15C460.112 305.329 459.992 305.546 459.992 305.8H458.993C458.993 305.51 459.095 305.23 459.299 304.962C459.507 304.69 459.786 304.475 460.137 304.317C460.492 304.16 460.88 304.081 461.303 304.081C461.972 304.081 462.497 304.249 462.876 304.586C463.256 304.919 463.453 305.379 463.467 305.966V308.641C463.467 309.175 463.535 309.599 463.671 309.914V310H462.629ZM460.98 309.243C461.292 309.243 461.587 309.162 461.867 309.001C462.146 308.84 462.348 308.63 462.474 308.373V307.18H461.695C460.477 307.18 459.869 307.536 459.869 308.249C459.869 308.561 459.972 308.804 460.18 308.979C460.388 309.155 460.655 309.243 460.98 309.243ZM464.789 307.046C464.789 306.14 464.998 305.42 465.417 304.887C465.836 304.35 466.391 304.081 467.082 304.081C467.791 304.081 468.344 304.332 468.742 304.833L468.79 304.188H469.698V309.86C469.698 310.612 469.474 311.205 469.026 311.638C468.582 312.071 467.984 312.288 467.232 312.288C466.813 312.288 466.403 312.199 466.002 312.02C465.601 311.84 465.295 311.595 465.084 311.284L465.6 310.688C466.026 311.214 466.547 311.477 467.163 311.477C467.646 311.477 468.022 311.341 468.291 311.069C468.563 310.797 468.699 310.414 468.699 309.919V309.42C468.301 309.878 467.759 310.107 467.071 310.107C466.391 310.107 465.84 309.833 465.417 309.286C464.998 308.738 464.789 307.991 464.789 307.046ZM465.788 307.159C465.788 307.814 465.922 308.33 466.19 308.706C466.459 309.078 466.835 309.264 467.318 309.264C467.945 309.264 468.405 308.979 468.699 308.41V305.757C468.394 305.202 467.938 304.924 467.329 304.924C466.846 304.924 466.468 305.112 466.196 305.488C465.924 305.864 465.788 306.421 465.788 307.159ZM473.613 310.107C472.826 310.107 472.185 309.85 471.69 309.334C471.196 308.815 470.949 308.122 470.949 307.255V307.073C470.949 306.496 471.058 305.982 471.277 305.531C471.499 305.076 471.807 304.722 472.201 304.468C472.598 304.21 473.028 304.081 473.49 304.081C474.245 304.081 474.833 304.33 475.251 304.828C475.67 305.325 475.88 306.038 475.88 306.965V307.379H471.943C471.957 307.952 472.124 308.416 472.442 308.77C472.765 309.121 473.173 309.296 473.667 309.296C474.018 309.296 474.315 309.225 474.559 309.082C474.802 308.938 475.015 308.749 475.198 308.512L475.805 308.985C475.318 309.733 474.587 310.107 473.613 310.107ZM473.49 304.897C473.089 304.897 472.752 305.044 472.48 305.338C472.208 305.628 472.04 306.036 471.975 306.562H474.886V306.487C474.858 305.982 474.722 305.592 474.478 305.316C474.235 305.037 473.905 304.897 473.49 304.897Z" fill="black"/>
<rect x="396" y="362" width="90" height="30" fill="#93ACED"/>
<path d="M405.024 379.63L406.142 375.188H407.135L405.443 381H404.638L403.225 376.596L401.85 381H401.044L399.358 375.188H400.346L401.49 379.539L402.844 375.188H403.644L405.024 379.63ZM410.959 376.08C410.809 376.055 410.646 376.042 410.471 376.042C409.819 376.042 409.377 376.32 409.144 376.875V381H408.15V375.188H409.117L409.133 375.86C409.459 375.341 409.921 375.081 410.519 375.081C410.712 375.081 410.859 375.106 410.959 375.156V376.08ZM412.958 381H411.964V375.188H412.958V381ZM411.883 373.647C411.883 373.486 411.932 373.35 412.028 373.239C412.129 373.128 412.275 373.072 412.469 373.072C412.662 373.072 412.809 373.128 412.909 373.239C413.009 373.35 413.06 373.486 413.06 373.647C413.06 373.808 413.009 373.942 412.909 374.05C412.809 374.157 412.662 374.211 412.469 374.211C412.275 374.211 412.129 374.157 412.028 374.05C411.932 373.942 411.883 373.808 411.883 373.647ZM415.901 373.781V375.188H416.986V375.957H415.901V379.561C415.901 379.793 415.949 379.969 416.046 380.087C416.143 380.201 416.307 380.259 416.54 380.259C416.655 380.259 416.812 380.237 417.013 380.194V381C416.751 381.072 416.497 381.107 416.25 381.107C415.806 381.107 415.471 380.973 415.246 380.705C415.02 380.436 414.907 380.055 414.907 379.561V375.957H413.849V375.188H414.907V373.781H415.901ZM420.563 381.107C419.775 381.107 419.134 380.85 418.64 380.334C418.146 379.815 417.899 379.122 417.899 378.255V378.073C417.899 377.496 418.008 376.982 418.227 376.531C418.449 376.076 418.757 375.722 419.15 375.468C419.548 375.21 419.978 375.081 420.439 375.081C421.195 375.081 421.782 375.33 422.201 375.828C422.62 376.325 422.83 377.038 422.83 377.965V378.379H418.893C418.907 378.952 419.073 379.416 419.392 379.77C419.714 380.121 420.123 380.296 420.617 380.296C420.968 380.296 421.265 380.225 421.508 380.082C421.752 379.938 421.965 379.749 422.147 379.512L422.754 379.985C422.267 380.733 421.537 381.107 420.563 381.107ZM420.439 375.897C420.038 375.897 419.702 376.044 419.43 376.338C419.158 376.628 418.989 377.036 418.925 377.562H421.836V377.487C421.807 376.982 421.671 376.592 421.428 376.316C421.184 376.037 420.855 375.897 420.439 375.897ZM427.792 381H426.799V375.188H427.792V381ZM426.718 373.647C426.718 373.486 426.767 373.35 426.863 373.239C426.964 373.128 427.11 373.072 427.304 373.072C427.497 373.072 427.644 373.128 427.744 373.239C427.844 373.35 427.895 373.486 427.895 373.647C427.895 373.808 427.844 373.942 427.744 374.05C427.644 374.157 427.497 374.211 427.304 374.211C427.11 374.211 426.964 374.157 426.863 374.05C426.767 373.942 426.718 373.808 426.718 373.647ZM430.328 375.188L430.36 375.919C430.804 375.36 431.384 375.081 432.1 375.081C433.328 375.081 433.948 375.774 433.958 377.16V381H432.965V377.154C432.961 376.735 432.865 376.426 432.675 376.225C432.489 376.025 432.197 375.924 431.799 375.924C431.477 375.924 431.194 376.01 430.951 376.182C430.707 376.354 430.517 376.58 430.381 376.859V381H429.388V375.188H430.328ZM437.944 378.046C437.944 377.154 438.155 376.438 438.578 375.897C439 375.353 439.553 375.081 440.237 375.081C440.918 375.081 441.457 375.314 441.854 375.779V372.75H442.848V381H441.935L441.886 380.377C441.489 380.864 440.936 381.107 440.227 381.107C439.553 381.107 439.004 380.832 438.578 380.28C438.155 379.729 437.944 379.009 437.944 378.121V378.046ZM438.938 378.159C438.938 378.818 439.074 379.333 439.346 379.706C439.618 380.078 439.994 380.264 440.474 380.264C441.104 380.264 441.564 379.981 441.854 379.416V376.746C441.557 376.198 441.1 375.924 440.484 375.924C439.997 375.924 439.618 376.112 439.346 376.488C439.074 376.864 438.938 377.421 438.938 378.159ZM447.982 381C447.925 380.885 447.879 380.681 447.843 380.388C447.381 380.868 446.829 381.107 446.188 381.107C445.616 381.107 445.145 380.946 444.776 380.624C444.411 380.298 444.228 379.886 444.228 379.389C444.228 378.784 444.457 378.314 444.916 377.981C445.377 377.645 446.026 377.477 446.86 377.477H447.827V377.02C447.827 376.673 447.723 376.397 447.515 376.193C447.307 375.985 447.001 375.881 446.597 375.881C446.242 375.881 445.945 375.971 445.705 376.15C445.465 376.329 445.345 376.546 445.345 376.8H444.346C444.346 376.51 444.448 376.23 444.652 375.962C444.86 375.69 445.139 375.475 445.49 375.317C445.845 375.16 446.233 375.081 446.656 375.081C447.325 375.081 447.85 375.249 448.229 375.586C448.609 375.919 448.806 376.379 448.82 376.966V379.641C448.82 380.175 448.888 380.599 449.024 380.914V381H447.982ZM446.333 380.243C446.645 380.243 446.94 380.162 447.22 380.001C447.499 379.84 447.701 379.63 447.827 379.373V378.18H447.048C445.83 378.18 445.222 378.536 445.222 379.249C445.222 379.561 445.326 379.804 445.533 379.979C445.741 380.155 446.008 380.243 446.333 380.243ZM451.726 373.781V375.188H452.811V375.957H451.726V379.561C451.726 379.793 451.774 379.969 451.871 380.087C451.968 380.201 452.132 380.259 452.365 380.259C452.48 380.259 452.637 380.237 452.838 380.194V381C452.576 381.072 452.322 381.107 452.075 381.107C451.631 381.107 451.296 380.973 451.071 380.705C450.845 380.436 450.732 380.055 450.732 379.561V375.957H449.674V375.188H450.732V373.781H451.726ZM457.564 381C457.507 380.885 457.461 380.681 457.425 380.388C456.963 380.868 456.411 381.107 455.771 381.107C455.198 381.107 454.727 380.946 454.358 380.624C453.993 380.298 453.81 379.886 453.81 379.389C453.81 378.784 454.039 378.314 454.498 377.981C454.959 377.645 455.608 377.477 456.442 377.477H457.409V377.02C457.409 376.673 457.305 376.397 457.097 376.193C456.889 375.985 456.583 375.881 456.179 375.881C455.824 375.881 455.527 375.971 455.287 376.15C455.047 376.329 454.927 376.546 454.927 376.8H453.928C453.928 376.51 454.03 376.23 454.234 375.962C454.442 375.69 454.721 375.475 455.072 375.317C455.427 375.16 455.815 375.081 456.238 375.081C456.907 375.081 457.432 375.249 457.812 375.586C458.191 375.919 458.388 376.379 458.402 376.966V379.641C458.402 380.175 458.47 380.599 458.606 380.914V381H457.564ZM455.916 380.243C456.227 380.243 456.522 380.162 456.802 380.001C457.081 379.84 457.283 379.63 457.409 379.373V378.18H456.63C455.412 378.18 454.804 378.536 454.804 379.249C454.804 379.561 454.908 379.804 455.115 379.979C455.323 380.155 455.59 380.243 455.916 380.243ZM464.88 378.159C464.88 379.047 464.676 379.761 464.268 380.302C463.859 380.839 463.312 381.107 462.624 381.107C461.89 381.107 461.322 380.848 460.921 380.329L460.873 381H459.96V372.75H460.954V375.828C461.355 375.33 461.908 375.081 462.613 375.081C463.319 375.081 463.872 375.348 464.273 375.881C464.678 376.415 464.88 377.145 464.88 378.073V378.159ZM463.886 378.046C463.886 377.369 463.756 376.846 463.494 376.478C463.233 376.109 462.857 375.924 462.366 375.924C461.711 375.924 461.24 376.229 460.954 376.837V379.351C461.258 379.96 461.732 380.264 462.377 380.264C462.853 380.264 463.224 380.08 463.489 379.711C463.754 379.342 463.886 378.787 463.886 378.046ZM469.725 381C469.667 380.885 469.621 380.681 469.585 380.388C469.123 380.868 468.572 381.107 467.931 381.107C467.358 381.107 466.887 380.946 466.518 380.624C466.153 380.298 465.97 379.886 465.97 379.389C465.97 378.784 466.199 378.314 466.658 377.981C467.12 377.645 467.768 377.477 468.602 377.477H469.569V377.02C469.569 376.673 469.465 376.397 469.257 376.193C469.05 375.985 468.743 375.881 468.339 375.881C467.984 375.881 467.687 375.971 467.447 376.15C467.207 376.329 467.087 376.546 467.087 376.8H466.088C466.088 376.51 466.19 376.23 466.395 375.962C466.602 375.69 466.882 375.475 467.232 375.317C467.587 375.16 467.975 375.081 468.398 375.081C469.068 375.081 469.592 375.249 469.972 375.586C470.351 375.919 470.548 376.379 470.562 376.966V379.641C470.562 380.175 470.631 380.599 470.767 380.914V381H469.725ZM468.076 380.243C468.387 380.243 468.683 380.162 468.962 380.001C469.241 379.84 469.444 379.63 469.569 379.373V378.18H468.79C467.573 378.18 466.964 378.536 466.964 379.249C466.964 379.561 467.068 379.804 467.275 379.979C467.483 380.155 467.75 380.243 468.076 380.243ZM475.504 379.458C475.504 379.19 475.402 378.982 475.198 378.835C474.997 378.685 474.645 378.556 474.14 378.449C473.638 378.341 473.239 378.212 472.942 378.062C472.648 377.912 472.43 377.733 472.287 377.525C472.147 377.317 472.077 377.07 472.077 376.784C472.077 376.307 472.278 375.905 472.679 375.575C473.083 375.246 473.599 375.081 474.226 375.081C474.884 375.081 475.418 375.251 475.826 375.591C476.238 375.931 476.444 376.367 476.444 376.896H475.445C475.445 376.624 475.328 376.39 475.096 376.193C474.867 375.996 474.576 375.897 474.226 375.897C473.864 375.897 473.581 375.976 473.377 376.134C473.173 376.291 473.071 376.497 473.071 376.751C473.071 376.991 473.166 377.172 473.355 377.294C473.545 377.416 473.887 377.532 474.381 377.643C474.879 377.754 475.282 377.887 475.59 378.041C475.898 378.194 476.125 378.381 476.272 378.599C476.422 378.814 476.498 379.077 476.498 379.389C476.498 379.908 476.29 380.325 475.875 380.64C475.459 380.952 474.92 381.107 474.258 381.107C473.792 381.107 473.381 381.025 473.022 380.86C472.664 380.696 472.383 380.466 472.179 380.173C471.979 379.876 471.878 379.555 471.878 379.211H472.872C472.89 379.544 473.022 379.809 473.27 380.006C473.52 380.2 473.85 380.296 474.258 380.296C474.634 380.296 474.935 380.221 475.16 380.071C475.389 379.917 475.504 379.713 475.504 379.458ZM480.204 381.107C479.416 381.107 478.775 380.85 478.281 380.334C477.787 379.815 477.54 379.122 477.54 378.255V378.073C477.54 377.496 477.649 376.982 477.867 376.531C478.089 376.076 478.397 375.722 478.791 375.468C479.188 375.21 479.618 375.081 480.08 375.081C480.836 375.081 481.423 375.33 481.842 375.828C482.261 376.325 482.47 377.038 482.47 377.965V378.379H478.533C478.548 378.952 478.714 379.416 479.033 379.77C479.355 380.121 479.763 380.296 480.257 380.296C480.608 380.296 480.905 380.225 481.149 380.082C481.392 379.938 481.605 379.749 481.788 379.512L482.395 379.985C481.908 380.733 481.178 381.107 480.204 381.107ZM480.08 375.897C479.679 375.897 479.342 376.044 479.07 376.338C478.798 376.628 478.63 377.036 478.565 377.562H481.477V377.487C481.448 376.982 481.312 376.592 481.068 376.316C480.825 376.037 480.495 375.897 480.08 375.897Z" fill="black"/>
<path d="M299.646 72.3536C299.842 72.5488 300.158 72.5488 300.354 72.3536L303.536 69.1716C303.731 68.9763 303.731 68.6597 303.536 68.4645C303.34 68.2692 303.024 68.2692 302.828 68.4645L300 71.2929L297.172 68.4645C296.976 68.2692 296.66 68.2692 296.464 68.4645C296.269 68.6597 296.269 68.9763 296.464 69.1716L299.646 72.3536ZM299.5 43V72H300.5V43H299.5Z" fill="black"/>
<path d="M299.646 143.354C299.842 143.549 300.158 143.549 300.354 143.354L303.536 140.172C303.731 139.976 303.731 139.66 303.536 139.464C303.34 139.269 303.024 139.269 302.828 139.464L300 142.293L297.172 139.464C296.976 139.269 296.66 139.269 296.464 139.464C296.269 139.66 296.269 139.976 296.464 140.172L299.646 143.354ZM299.5 114V143H300.5V114H299.5Z" fill="black"/>
<path d="M440.646 214.354C440.842 214.549 441.158 214.549 441.354 214.354L444.536 211.172C444.731 210.976 444.731 210.66 444.536 210.464C444.34 210.269 444.024 210.269 443.828 210.464L441 213.293L438.172 210.464C437.976 210.269 437.66 210.269 437.464 210.464C437.269 210.66 437.269 210.976 437.464 211.172L440.646 214.354ZM440.5 185V214H441.5V185H440.5Z" fill="black"/>
<path d="M440.646 285.354C440.842 285.549 441.158 285.549 441.354 285.354L444.536 282.172C444.731 281.976 444.731 281.66 444.536 281.464C444.34 281.269 444.024 281.269 443.828 281.464L441 284.293L438.172 281.464C437.976 281.269 437.66 281.269 437.464 281.464C437.269 281.66 437.269 281.976 437.464 282.172L440.646 285.354ZM440.5 256V285H441.5V256H440.5Z" fill="black"/>
<path d="M440.646 356.354C440.842 356.549 441.158 356.549 441.354 356.354L444.536 353.172C444.731 352.976 444.731 352.66 444.536 352.464C444.34 352.269 444.024 352.269 443.828 352.464L441 355.293L438.172 352.464C437.976 352.269 437.66 352.269 437.464 352.464C437.269 352.66 437.269 352.976 437.464 353.172L440.646 356.354ZM440.5 327V356H441.5V327H440.5Z" fill="black"/>
<path d="M214.646 92.6464C214.451 92.8417 214.451 93.1583 214.646 93.3536L217.828 96.5355C218.024 96.7308 218.34 96.7308 218.536 96.5355C218.731 96.3403 218.731 96.0237 218.536 95.8284L215.707 93L218.536 90.1716C218.731 89.9763 218.731 89.6597 218.536 89.4645C218.34 89.2692 218.024 89.2692 217.828 89.4645L214.646 92.6464ZM244 92.5H215V93.5H244V92.5Z" fill="black"/>
<path d="M385.354 164.354C385.549 164.158 385.549 163.842 385.354 163.646L382.172 160.464C381.976 160.269 381.66 160.269 381.464 160.464C381.269 160.66 381.269 160.976 381.464 161.172L384.293 164L381.464 166.828C381.269 167.024 381.269 167.34 381.464 167.536C381.66 167.731 381.976 167.731 382.172 167.536L385.354 164.354ZM356 164.5H385V163.5H356V164.5Z" fill="black"/>
</svg>
