<svg width="600" height="320" viewBox="0 0 600 320" fill="none" xmlns="http://www.w3.org/2000/svg">
<rect width="600" height="320" fill="white"/>
<rect x="115" y="75" width="90" height="60" fill="#8BC786"/>
<rect x="115" y="105" width="90" height="30" fill="#A5DAA1"/>
<path d="M141.873 120.535L142.023 121.566L142.243 120.637L143.79 115.18H144.66L146.169 120.637L146.384 121.582L146.551 120.529L147.765 115.18H148.801L146.905 123H145.965L144.354 117.301L144.23 116.705L144.107 117.301L142.437 123H141.497L139.606 115.18H140.637L141.873 120.535ZM152.035 123.107C151.247 123.107 150.606 122.85 150.112 122.334C149.618 121.815 149.371 121.122 149.371 120.255V120.073C149.371 119.496 149.48 118.982 149.698 118.531C149.92 118.076 150.228 117.722 150.622 117.468C151.02 117.21 151.449 117.081 151.911 117.081C152.667 117.081 153.254 117.33 153.673 117.828C154.092 118.325 154.301 119.038 154.301 119.965V120.379H150.364C150.379 120.952 150.545 121.416 150.864 121.77C151.186 122.121 151.594 122.296 152.088 122.296C152.439 122.296 152.736 122.225 152.98 122.082C153.223 121.938 153.437 121.749 153.619 121.512L154.226 121.985C153.739 122.733 153.009 123.107 152.035 123.107ZM151.911 117.897C151.51 117.897 151.174 118.044 150.901 118.338C150.629 118.628 150.461 119.036 150.396 119.562H153.308V119.487C153.279 118.982 153.143 118.592 152.899 118.316C152.656 118.037 152.326 117.897 151.911 117.897ZM160.376 120.159C160.376 121.047 160.172 121.761 159.764 122.302C159.355 122.839 158.808 123.107 158.12 123.107C157.386 123.107 156.819 122.848 156.417 122.329L156.369 123H155.456V114.75H156.45V117.828C156.851 117.33 157.404 117.081 158.109 117.081C158.815 117.081 159.368 117.348 159.769 117.881C160.174 118.415 160.376 119.145 160.376 120.073V120.159ZM159.382 120.046C159.382 119.369 159.252 118.846 158.99 118.478C158.729 118.109 158.353 117.924 157.862 117.924C157.207 117.924 156.736 118.229 156.45 118.837V121.351C156.754 121.96 157.229 122.264 157.873 122.264C158.349 122.264 158.72 122.08 158.985 121.711C159.25 121.342 159.382 120.787 159.382 120.046ZM168.835 120.959H165.559L164.823 123H163.76L166.746 115.18H167.648L170.64 123H169.582L168.835 120.959ZM165.871 120.11H168.529L167.197 116.453L165.871 120.11ZM172.724 119.938V123H171.693V115.18H174.577C175.433 115.18 176.103 115.398 176.586 115.835C177.073 116.272 177.316 116.85 177.316 117.57C177.316 118.329 177.078 118.914 176.602 119.326C176.129 119.734 175.451 119.938 174.566 119.938H172.724ZM172.724 119.095H174.577C175.129 119.095 175.551 118.966 175.845 118.708C176.138 118.447 176.285 118.071 176.285 117.581C176.285 117.115 176.138 116.743 175.845 116.463C175.551 116.184 175.148 116.039 174.636 116.028H172.724V119.095ZM179.739 123H178.708V115.18H179.739V123Z" fill="black"/>
<path d="M147.711 91.5142C146.826 91.2599 146.182 90.9484 145.777 90.5796C145.376 90.2072 145.176 89.7489 145.176 89.2046C145.176 88.5887 145.421 88.0802 145.912 87.6792C146.406 87.2746 147.047 87.0723 147.834 87.0723C148.372 87.0723 148.85 87.1761 149.269 87.3838C149.691 87.5915 150.017 87.8779 150.246 88.2432C150.479 88.6084 150.595 89.0076 150.595 89.4409H149.559C149.559 88.9683 149.408 88.5977 149.107 88.3291C148.807 88.057 148.382 87.9209 147.834 87.9209C147.326 87.9209 146.929 88.0337 146.642 88.2593C146.359 88.4813 146.218 88.791 146.218 89.1885C146.218 89.5072 146.352 89.7775 146.621 89.9995C146.893 90.2179 147.353 90.4185 148.001 90.6011C148.653 90.7837 149.161 90.986 149.526 91.208C149.895 91.4264 150.167 91.6825 150.343 91.9761C150.522 92.2697 150.611 92.6152 150.611 93.0127C150.611 93.6465 150.364 94.1549 149.87 94.5381C149.376 94.9176 148.715 95.1074 147.888 95.1074C147.351 95.1074 146.85 95.0054 146.384 94.8013C145.919 94.5936 145.559 94.3107 145.305 93.9526C145.054 93.5946 144.929 93.1882 144.929 92.7334H145.965C145.965 93.2061 146.139 93.5802 146.486 93.856C146.837 94.1281 147.305 94.2642 147.888 94.2642C148.432 94.2642 148.85 94.1532 149.14 93.9312C149.43 93.7091 149.575 93.4066 149.575 93.0234C149.575 92.6403 149.44 92.3449 149.172 92.1372C148.903 91.9259 148.416 91.7183 147.711 91.5142ZM154.194 95.1074C153.406 95.1074 152.765 94.8496 152.271 94.334C151.777 93.8148 151.53 93.1219 151.53 92.2554V92.0728C151.53 91.4963 151.639 90.9824 151.857 90.5312C152.079 90.0765 152.387 89.722 152.781 89.4678C153.179 89.21 153.608 89.0811 154.07 89.0811C154.826 89.0811 155.413 89.3299 155.832 89.8276C156.251 90.3254 156.46 91.0379 156.46 91.9653V92.3789H152.523C152.538 92.9518 152.704 93.4155 153.023 93.77C153.345 94.1209 153.753 94.2964 154.248 94.2964C154.598 94.2964 154.896 94.2248 155.139 94.0815C155.383 93.9383 155.596 93.7485 155.778 93.5122L156.385 93.9849C155.898 94.7332 155.168 95.1074 154.194 95.1074ZM154.07 89.8975C153.669 89.8975 153.333 90.0443 153.061 90.3379C152.788 90.6279 152.62 91.0361 152.556 91.5625H155.467V91.4873C155.438 90.9824 155.302 90.5921 155.059 90.3164C154.815 90.0371 154.486 89.8975 154.07 89.8975ZM160.424 90.0801C160.274 90.055 160.111 90.0425 159.936 90.0425C159.284 90.0425 158.842 90.32 158.609 90.875V95H157.615V89.1885H158.582L158.598 89.8599C158.924 89.3407 159.386 89.0811 159.984 89.0811C160.177 89.0811 160.324 89.1061 160.424 89.1562V90.0801ZM163.357 93.6519L164.796 89.1885H165.812L163.728 95H162.97L160.865 89.1885H161.88L163.357 93.6519ZM169.104 95.1074C168.316 95.1074 167.675 94.8496 167.181 94.334C166.687 93.8148 166.44 93.1219 166.44 92.2554V92.0728C166.44 91.4963 166.549 90.9824 166.768 90.5312C166.99 90.0765 167.298 89.722 167.691 89.4678C168.089 89.21 168.519 89.0811 168.98 89.0811C169.736 89.0811 170.323 89.3299 170.742 89.8276C171.161 90.3254 171.371 91.0379 171.371 91.9653V92.3789H167.434C167.448 92.9518 167.614 93.4155 167.933 93.77C168.255 94.1209 168.664 94.2964 169.158 94.2964C169.509 94.2964 169.806 94.2248 170.049 94.0815C170.293 93.9383 170.506 93.7485 170.688 93.5122L171.295 93.9849C170.808 94.7332 170.078 95.1074 169.104 95.1074ZM168.98 89.8975C168.579 89.8975 168.243 90.0443 167.971 90.3379C167.699 90.6279 167.53 91.0361 167.466 91.5625H170.377V91.4873C170.348 90.9824 170.212 90.5921 169.969 90.3164C169.725 90.0371 169.396 89.8975 168.98 89.8975ZM175.334 90.0801C175.184 90.055 175.021 90.0425 174.846 90.0425C174.194 90.0425 173.752 90.32 173.519 90.875V95H172.525V89.1885H173.492L173.508 89.8599C173.834 89.3407 174.296 89.0811 174.894 89.0811C175.087 89.0811 175.234 89.1061 175.334 89.1562V90.0801Z" fill="black"/>
<rect x="115" y="185" width="90" height="60" fill="#5E81DA"/>
<rect x="115" y="215" width="90" height="30" fill="#93ACED"/>
<path d="M124.148 229.836H122.312V233H121.275V225.18H123.864C124.745 225.18 125.421 225.38 125.894 225.781C126.37 226.182 126.608 226.766 126.608 227.532C126.608 228.019 126.476 228.444 126.211 228.805C125.95 229.167 125.584 229.437 125.115 229.616L126.952 232.936V233H125.846L124.148 229.836ZM122.312 228.993H123.896C124.408 228.993 124.814 228.861 125.115 228.596C125.42 228.331 125.572 227.976 125.572 227.532C125.572 227.049 125.427 226.678 125.137 226.42C124.85 226.163 124.435 226.032 123.891 226.028H122.312V228.993ZM130.314 233.107C129.527 233.107 128.886 232.85 128.392 232.334C127.897 231.815 127.65 231.122 127.65 230.255V230.073C127.65 229.496 127.76 228.982 127.978 228.531C128.2 228.076 128.508 227.722 128.902 227.468C129.299 227.21 129.729 227.081 130.191 227.081C130.946 227.081 131.534 227.33 131.953 227.828C132.372 228.325 132.581 229.038 132.581 229.965V230.379H128.644C128.658 230.952 128.825 231.416 129.144 231.77C129.466 232.121 129.874 232.296 130.368 232.296C130.719 232.296 131.016 232.225 131.26 232.082C131.503 231.938 131.716 231.749 131.899 231.512L132.506 231.985C132.019 232.733 131.288 233.107 130.314 233.107ZM130.191 227.897C129.79 227.897 129.453 228.044 129.181 228.338C128.909 228.628 128.741 229.036 128.676 229.562H131.587V229.487C131.559 228.982 131.423 228.592 131.179 228.316C130.936 228.037 130.606 227.897 130.191 227.897ZM133.494 230.046C133.494 229.154 133.705 228.438 134.128 227.897C134.55 227.353 135.104 227.081 135.788 227.081C136.468 227.081 137.007 227.314 137.404 227.779V224.75H138.398V233H137.485L137.437 232.377C137.039 232.864 136.486 233.107 135.777 233.107C135.104 233.107 134.554 232.832 134.128 232.28C133.705 231.729 133.494 231.009 133.494 230.121V230.046ZM134.488 230.159C134.488 230.818 134.624 231.333 134.896 231.706C135.168 232.078 135.544 232.264 136.024 232.264C136.654 232.264 137.114 231.981 137.404 231.416V228.746C137.107 228.198 136.651 227.924 136.035 227.924C135.548 227.924 135.168 228.112 134.896 228.488C134.624 228.864 134.488 229.421 134.488 230.159ZM141.024 233H140.031V227.188H141.024V233ZM139.95 225.647C139.95 225.486 139.999 225.35 140.095 225.239C140.195 225.128 140.342 225.072 140.536 225.072C140.729 225.072 140.876 225.128 140.976 225.239C141.076 225.35 141.126 225.486 141.126 225.647C141.126 225.808 141.076 225.942 140.976 226.05C140.876 226.157 140.729 226.211 140.536 226.211C140.342 226.211 140.195 226.157 140.095 226.05C139.999 225.942 139.95 225.808 139.95 225.647ZM146.003 231.458C146.003 231.19 145.901 230.982 145.697 230.835C145.497 230.685 145.144 230.556 144.639 230.449C144.138 230.341 143.739 230.212 143.441 230.062C143.148 229.912 142.929 229.733 142.786 229.525C142.646 229.317 142.577 229.07 142.577 228.784C142.577 228.307 142.777 227.905 143.178 227.575C143.583 227.246 144.098 227.081 144.725 227.081C145.384 227.081 145.917 227.251 146.326 227.591C146.737 227.931 146.943 228.367 146.943 228.896H145.944C145.944 228.624 145.828 228.39 145.595 228.193C145.366 227.996 145.076 227.897 144.725 227.897C144.363 227.897 144.081 227.976 143.876 228.134C143.672 228.291 143.57 228.497 143.57 228.751C143.57 228.991 143.665 229.172 143.855 229.294C144.045 229.416 144.387 229.532 144.881 229.643C145.379 229.754 145.781 229.887 146.089 230.041C146.397 230.194 146.625 230.381 146.771 230.599C146.922 230.814 146.997 231.077 146.997 231.389C146.997 231.908 146.789 232.325 146.374 232.64C145.959 232.952 145.42 233.107 144.757 233.107C144.292 233.107 143.88 233.025 143.522 232.86C143.164 232.696 142.883 232.466 142.679 232.173C142.478 231.876 142.378 231.555 142.378 231.211H143.372C143.389 231.544 143.522 231.809 143.769 232.006C144.02 232.2 144.349 232.296 144.757 232.296C145.133 232.296 145.434 232.221 145.66 232.071C145.889 231.917 146.003 231.713 146.003 231.458ZM148.49 233.671H147.636L150.902 225.18H151.75L148.49 233.671ZM155.849 229.836H154.012V233H152.975V225.18H155.564C156.445 225.18 157.122 225.38 157.594 225.781C158.07 226.182 158.309 226.766 158.309 227.532C158.309 228.019 158.176 228.444 157.911 228.805C157.65 229.167 157.285 229.437 156.815 229.616L158.652 232.936V233H157.546L155.849 229.836ZM154.012 228.993H155.596C156.108 228.993 156.515 228.861 156.815 228.596C157.12 228.331 157.272 227.976 157.272 227.532C157.272 227.049 157.127 226.678 156.837 226.42C156.55 226.163 156.135 226.032 155.591 226.028H154.012V228.993ZM163.191 233C163.134 232.885 163.087 232.681 163.051 232.388C162.589 232.868 162.038 233.107 161.397 233.107C160.824 233.107 160.353 232.946 159.984 232.624C159.619 232.298 159.437 231.886 159.437 231.389C159.437 230.784 159.666 230.314 160.124 229.981C160.586 229.645 161.234 229.477 162.068 229.477H163.035V229.02C163.035 228.673 162.931 228.397 162.724 228.193C162.516 227.985 162.21 227.881 161.805 227.881C161.451 227.881 161.153 227.971 160.914 228.15C160.674 228.329 160.554 228.546 160.554 228.8H159.555C159.555 228.51 159.657 228.23 159.861 227.962C160.069 227.69 160.348 227.475 160.699 227.317C161.053 227.16 161.442 227.081 161.864 227.081C162.534 227.081 163.058 227.249 163.438 227.586C163.818 227.919 164.014 228.379 164.029 228.966V231.641C164.029 232.175 164.097 232.599 164.233 232.914V233H163.191ZM161.542 232.243C161.854 232.243 162.149 232.162 162.428 232.001C162.708 231.84 162.91 231.63 163.035 231.373V230.18H162.256C161.039 230.18 160.43 230.536 160.43 231.249C160.43 231.561 160.534 231.804 160.742 231.979C160.949 232.155 161.216 232.243 161.542 232.243ZM170.506 230.159C170.506 231.047 170.302 231.761 169.894 232.302C169.486 232.839 168.938 233.107 168.25 233.107C167.516 233.107 166.949 232.848 166.548 232.329L166.5 233H165.586V224.75H166.58V227.828C166.981 227.33 167.534 227.081 168.24 227.081C168.945 227.081 169.498 227.348 169.899 227.881C170.304 228.415 170.506 229.145 170.506 230.073V230.159ZM169.513 230.046C169.513 229.369 169.382 228.846 169.121 228.478C168.859 228.109 168.483 227.924 167.993 227.924C167.337 227.924 166.867 228.229 166.58 228.837V231.351C166.884 231.96 167.359 232.264 168.003 232.264C168.48 232.264 168.85 232.08 169.115 231.711C169.38 231.342 169.513 230.787 169.513 230.046ZM176.683 230.159C176.683 231.047 176.479 231.761 176.071 232.302C175.663 232.839 175.115 233.107 174.427 233.107C173.693 233.107 173.126 232.848 172.725 232.329L172.676 233H171.763V224.75H172.757V227.828C173.158 227.33 173.711 227.081 174.417 227.081C175.122 227.081 175.675 227.348 176.076 227.881C176.481 228.415 176.683 229.145 176.683 230.073V230.159ZM175.689 230.046C175.689 229.369 175.559 228.846 175.297 228.478C175.036 228.109 174.66 227.924 174.169 227.924C173.514 227.924 173.043 228.229 172.757 228.837V231.351C173.061 231.96 173.536 232.264 174.18 232.264C174.656 232.264 175.027 232.08 175.292 231.711C175.557 231.342 175.689 230.787 175.689 230.046ZM179.02 233H178.026V227.188H179.02V233ZM177.945 225.647C177.945 225.486 177.994 225.35 178.09 225.239C178.191 225.128 178.337 225.072 178.531 225.072C178.724 225.072 178.871 225.128 178.971 225.239C179.071 225.35 179.122 225.486 179.122 225.647C179.122 225.808 179.071 225.942 178.971 226.05C178.871 226.157 178.724 226.211 178.531 226.211C178.337 226.211 178.191 226.157 178.09 226.05C177.994 225.942 177.945 225.808 177.945 225.647ZM181.963 225.781V227.188H183.048V227.957H181.963V231.561C181.963 231.793 182.011 231.969 182.108 232.087C182.205 232.201 182.369 232.259 182.602 232.259C182.717 232.259 182.874 232.237 183.075 232.194V233C182.813 233.072 182.559 233.107 182.312 233.107C181.868 233.107 181.533 232.973 181.308 232.705C181.082 232.436 180.969 232.055 180.969 231.561V227.957H179.911V227.188H180.969V225.781H181.963ZM185.701 225.18L188.258 231.561L190.814 225.18H192.152V233H191.121V229.955L191.217 226.667L188.65 233H187.86L185.298 226.684L185.4 229.955V233H184.369V225.18H185.701ZM199.945 229.342C199.945 230.098 199.825 230.75 199.585 231.297C199.346 231.842 199.009 232.268 198.576 232.576L199.972 233.671L199.269 234.321L197.62 233.011C197.362 233.075 197.09 233.107 196.803 233.107C196.187 233.107 195.641 232.957 195.165 232.656C194.689 232.352 194.318 231.92 194.053 231.362C193.792 230.8 193.658 230.15 193.65 229.412V228.848C193.65 228.096 193.781 227.432 194.042 226.855C194.304 226.279 194.673 225.839 195.149 225.534C195.629 225.226 196.177 225.072 196.792 225.072C197.423 225.072 197.976 225.224 198.452 225.529C198.932 225.833 199.301 226.272 199.559 226.845C199.816 227.414 199.945 228.08 199.945 228.843V229.342ZM198.914 228.837C198.914 227.917 198.73 227.208 198.361 226.71C197.996 226.209 197.473 225.958 196.792 225.958C196.144 225.958 195.632 226.207 195.256 226.705C194.884 227.199 194.692 227.887 194.682 228.768V229.342C194.682 230.237 194.868 230.943 195.24 231.458C195.616 231.974 196.137 232.232 196.803 232.232C197.469 232.232 197.985 231.99 198.35 231.507C198.715 231.02 198.903 230.323 198.914 229.417V228.837Z" fill="black"/>
<path d="M151.197 201.342C151.197 202.098 151.077 202.75 150.837 203.297C150.597 203.842 150.26 204.268 149.827 204.576L151.224 205.671L150.52 206.321L148.871 205.011C148.613 205.075 148.341 205.107 148.055 205.107C147.439 205.107 146.893 204.957 146.417 204.656C145.94 204.352 145.57 203.92 145.305 203.362C145.043 202.8 144.909 202.15 144.902 201.412V200.848C144.902 200.096 145.033 199.432 145.294 198.855C145.555 198.279 145.924 197.839 146.4 197.534C146.88 197.226 147.428 197.072 148.044 197.072C148.674 197.072 149.227 197.224 149.704 197.529C150.183 197.833 150.552 198.272 150.81 198.845C151.068 199.414 151.197 200.08 151.197 200.843V201.342ZM150.166 200.837C150.166 199.917 149.981 199.208 149.612 198.71C149.247 198.209 148.724 197.958 148.044 197.958C147.396 197.958 146.884 198.207 146.508 198.705C146.135 199.199 145.944 199.887 145.933 200.768V201.342C145.933 202.237 146.119 202.943 146.492 203.458C146.868 203.974 147.389 204.232 148.055 204.232C148.721 204.232 149.236 203.99 149.602 203.507C149.967 203.02 150.155 202.323 150.166 201.417V200.837ZM156.219 204.425C155.832 204.88 155.264 205.107 154.516 205.107C153.897 205.107 153.424 204.928 153.098 204.57C152.776 204.209 152.613 203.675 152.609 202.97V199.188H153.603V202.943C153.603 203.824 153.961 204.264 154.677 204.264C155.436 204.264 155.941 203.981 156.192 203.416V199.188H157.186V205H156.24L156.219 204.425ZM161.112 205.107C160.324 205.107 159.683 204.85 159.189 204.334C158.695 203.815 158.448 203.122 158.448 202.255V202.073C158.448 201.496 158.557 200.982 158.775 200.531C158.997 200.076 159.305 199.722 159.699 199.468C160.097 199.21 160.526 199.081 160.988 199.081C161.744 199.081 162.331 199.33 162.75 199.828C163.169 200.325 163.378 201.038 163.378 201.965V202.379H159.441C159.456 202.952 159.622 203.416 159.941 203.77C160.263 204.121 160.671 204.296 161.166 204.296C161.516 204.296 161.814 204.225 162.057 204.082C162.301 203.938 162.514 203.749 162.696 203.512L163.303 203.985C162.816 204.733 162.086 205.107 161.112 205.107ZM160.988 199.897C160.587 199.897 160.251 200.044 159.979 200.338C159.706 200.628 159.538 201.036 159.474 201.562H162.385V201.487C162.356 200.982 162.22 200.592 161.977 200.316C161.733 200.037 161.404 199.897 160.988 199.897ZM168.121 204.425C167.734 204.88 167.167 205.107 166.418 205.107C165.799 205.107 165.326 204.928 165 204.57C164.678 204.209 164.515 203.675 164.512 202.97V199.188H165.505V202.943C165.505 203.824 165.863 204.264 166.58 204.264C167.339 204.264 167.844 203.981 168.094 203.416V199.188H169.088V205H168.143L168.121 204.425ZM173.014 205.107C172.226 205.107 171.585 204.85 171.091 204.334C170.597 203.815 170.35 203.122 170.35 202.255V202.073C170.35 201.496 170.459 200.982 170.678 200.531C170.9 200.076 171.208 199.722 171.602 199.468C171.999 199.21 172.429 199.081 172.891 199.081C173.646 199.081 174.233 199.33 174.652 199.828C175.071 200.325 175.281 201.038 175.281 201.965V202.379H171.344C171.358 202.952 171.525 203.416 171.843 203.77C172.166 204.121 172.574 204.296 173.068 204.296C173.419 204.296 173.716 204.225 173.959 204.082C174.203 203.938 174.416 203.749 174.599 203.512L175.206 203.985C174.719 204.733 173.988 205.107 173.014 205.107ZM172.891 199.897C172.49 199.897 172.153 200.044 171.881 200.338C171.609 200.628 171.44 201.036 171.376 201.562H174.287V201.487C174.258 200.982 174.122 200.592 173.879 200.316C173.635 200.037 173.306 199.897 172.891 199.897Z" fill="black"/>
<rect x="281" y="185" width="90" height="60" fill="#5E81DA"/>
<rect x="281" y="215" width="90" height="30" fill="#93ACED"/>
<path d="M297.066 230.519C296.969 231.346 296.663 231.985 296.147 232.436C295.635 232.884 294.953 233.107 294.101 233.107C293.177 233.107 292.436 232.776 291.877 232.114C291.322 231.451 291.045 230.565 291.045 229.455V228.703C291.045 227.976 291.174 227.337 291.432 226.786C291.693 226.234 292.062 225.812 292.538 225.518C293.014 225.221 293.566 225.072 294.192 225.072C295.023 225.072 295.689 225.305 296.19 225.771C296.692 226.232 296.984 226.873 297.066 227.693H296.029C295.94 227.07 295.745 226.619 295.444 226.34C295.147 226.061 294.729 225.921 294.192 225.921C293.534 225.921 293.016 226.164 292.64 226.651C292.268 227.138 292.082 227.831 292.082 228.73V229.487C292.082 230.336 292.259 231.011 292.613 231.512C292.968 232.014 293.464 232.264 294.101 232.264C294.674 232.264 295.113 232.135 295.417 231.877C295.725 231.616 295.929 231.163 296.029 230.519H297.066ZM301.911 232.425C301.524 232.88 300.956 233.107 300.208 233.107C299.589 233.107 299.116 232.928 298.79 232.57C298.468 232.209 298.305 231.675 298.301 230.97V227.188H299.295V230.943C299.295 231.824 299.653 232.264 300.369 232.264C301.128 232.264 301.633 231.981 301.884 231.416V227.188H302.877V233H301.932L301.911 232.425ZM307.776 231.458C307.776 231.19 307.674 230.982 307.47 230.835C307.269 230.685 306.917 230.556 306.412 230.449C305.91 230.341 305.511 230.212 305.214 230.062C304.92 229.912 304.702 229.733 304.559 229.525C304.419 229.317 304.349 229.07 304.349 228.784C304.349 228.307 304.55 227.905 304.951 227.575C305.355 227.246 305.871 227.081 306.498 227.081C307.156 227.081 307.69 227.251 308.098 227.591C308.51 227.931 308.716 228.367 308.716 228.896H307.717C307.717 228.624 307.6 228.39 307.368 228.193C307.139 227.996 306.848 227.897 306.498 227.897C306.136 227.897 305.853 227.976 305.649 228.134C305.445 228.291 305.343 228.497 305.343 228.751C305.343 228.991 305.438 229.172 305.627 229.294C305.817 229.416 306.159 229.532 306.653 229.643C307.151 229.754 307.554 229.887 307.862 230.041C308.17 230.194 308.397 230.381 308.544 230.599C308.694 230.814 308.77 231.077 308.77 231.389C308.77 231.908 308.562 232.325 308.146 232.64C307.731 232.952 307.192 233.107 306.53 233.107C306.064 233.107 305.653 233.025 305.294 232.86C304.936 232.696 304.655 232.466 304.451 232.173C304.251 231.876 304.15 231.555 304.15 231.211H305.144C305.162 231.544 305.294 231.809 305.542 232.006C305.792 232.2 306.122 232.296 306.53 232.296C306.906 232.296 307.207 232.221 307.432 232.071C307.661 231.917 307.776 231.713 307.776 231.458ZM311.412 225.781V227.188H312.497V227.957H311.412V231.561C311.412 231.793 311.46 231.969 311.557 232.087C311.654 232.201 311.819 232.259 312.051 232.259C312.166 232.259 312.323 232.237 312.524 232.194V233C312.263 233.072 312.008 233.107 311.761 233.107C311.317 233.107 310.982 232.973 310.757 232.705C310.531 232.436 310.418 232.055 310.418 231.561V227.957H309.36V227.188H310.418V225.781H311.412ZM313.292 230.041C313.292 229.471 313.403 228.959 313.625 228.504C313.851 228.05 314.162 227.699 314.56 227.452C314.961 227.205 315.417 227.081 315.929 227.081C316.721 227.081 317.36 227.355 317.847 227.903C318.337 228.451 318.583 229.179 318.583 230.089V230.159C318.583 230.724 318.473 231.233 318.255 231.684C318.04 232.132 317.73 232.481 317.326 232.731C316.925 232.982 316.463 233.107 315.94 233.107C315.152 233.107 314.513 232.833 314.022 232.286C313.535 231.738 313.292 231.013 313.292 230.11V230.041ZM314.291 230.159C314.291 230.803 314.44 231.321 314.737 231.711C315.038 232.101 315.439 232.296 315.94 232.296C316.445 232.296 316.846 232.099 317.143 231.706C317.44 231.308 317.589 230.753 317.589 230.041C317.589 229.403 317.437 228.888 317.132 228.494C316.832 228.096 316.431 227.897 315.929 227.897C315.439 227.897 315.043 228.093 314.742 228.483C314.441 228.873 314.291 229.432 314.291 230.159ZM320.763 227.188L320.79 227.833C321.216 227.332 321.791 227.081 322.514 227.081C323.327 227.081 323.88 227.393 324.174 228.016C324.367 227.736 324.618 227.511 324.926 227.339C325.237 227.167 325.604 227.081 326.027 227.081C327.302 227.081 327.95 227.756 327.971 229.106V233H326.978V229.165C326.978 228.75 326.883 228.44 326.693 228.236C326.503 228.028 326.184 227.924 325.737 227.924C325.368 227.924 325.062 228.035 324.818 228.257C324.575 228.476 324.433 228.771 324.394 229.144V233H323.395V229.192C323.395 228.347 322.981 227.924 322.154 227.924C321.503 227.924 321.057 228.202 320.817 228.757V233H319.823V227.188H320.763ZM335.587 231.458C335.587 231.19 335.485 230.982 335.281 230.835C335.081 230.685 334.728 230.556 334.223 230.449C333.722 230.341 333.323 230.212 333.025 230.062C332.732 229.912 332.513 229.733 332.37 229.525C332.23 229.317 332.161 229.07 332.161 228.784C332.161 228.307 332.361 227.905 332.762 227.575C333.167 227.246 333.682 227.081 334.309 227.081C334.968 227.081 335.501 227.251 335.91 227.591C336.321 227.931 336.527 228.367 336.527 228.896H335.528C335.528 228.624 335.412 228.39 335.179 228.193C334.95 227.996 334.66 227.897 334.309 227.897C333.947 227.897 333.665 227.976 333.46 228.134C333.256 228.291 333.154 228.497 333.154 228.751C333.154 228.991 333.249 229.172 333.439 229.294C333.629 229.416 333.971 229.532 334.465 229.643C334.963 229.754 335.365 229.887 335.673 230.041C335.981 230.194 336.209 230.381 336.355 230.599C336.506 230.814 336.581 231.077 336.581 231.389C336.581 231.908 336.373 232.325 335.958 232.64C335.543 232.952 335.004 233.107 334.341 233.107C333.876 233.107 333.464 233.025 333.106 232.86C332.748 232.696 332.467 232.466 332.263 232.173C332.062 231.876 331.962 231.555 331.962 231.211H332.956C332.973 231.544 333.106 231.809 333.353 232.006C333.604 232.2 333.933 232.296 334.341 232.296C334.717 232.296 335.018 232.221 335.244 232.071C335.473 231.917 335.587 231.713 335.587 231.458ZM340.287 233.107C339.499 233.107 338.858 232.85 338.364 232.334C337.87 231.815 337.623 231.122 337.623 230.255V230.073C337.623 229.496 337.732 228.982 337.951 228.531C338.173 228.076 338.481 227.722 338.875 227.468C339.272 227.21 339.702 227.081 340.164 227.081C340.919 227.081 341.506 227.33 341.925 227.828C342.344 228.325 342.554 229.038 342.554 229.965V230.379H338.617C338.631 230.952 338.798 231.416 339.116 231.77C339.438 232.121 339.847 232.296 340.341 232.296C340.692 232.296 340.989 232.225 341.232 232.082C341.476 231.938 341.689 231.749 341.872 231.512L342.479 231.985C341.992 232.733 341.261 233.107 340.287 233.107ZM340.164 227.897C339.763 227.897 339.426 228.044 339.154 228.338C338.882 228.628 338.713 229.036 338.649 229.562H341.56V229.487C341.531 228.982 341.395 228.592 341.152 228.316C340.908 228.037 340.579 227.897 340.164 227.897ZM346.518 228.08C346.367 228.055 346.204 228.042 346.029 228.042C345.377 228.042 344.935 228.32 344.702 228.875V233H343.708V227.188H344.675L344.691 227.86C345.017 227.341 345.479 227.081 346.077 227.081C346.271 227.081 346.417 227.106 346.518 227.156V228.08ZM349.45 231.652L350.89 227.188H351.905L349.821 233H349.063L346.958 227.188H347.973L349.45 231.652ZM355.197 233.107C354.41 233.107 353.769 232.85 353.274 232.334C352.78 231.815 352.533 231.122 352.533 230.255V230.073C352.533 229.496 352.642 228.982 352.861 228.531C353.083 228.076 353.391 227.722 353.785 227.468C354.182 227.21 354.612 227.081 355.074 227.081C355.829 227.081 356.417 227.33 356.835 227.828C357.254 228.325 357.464 229.038 357.464 229.965V230.379H353.527C353.541 230.952 353.708 231.416 354.026 231.77C354.349 232.121 354.757 232.296 355.251 232.296C355.602 232.296 355.899 232.225 356.143 232.082C356.386 231.938 356.599 231.749 356.782 231.512L357.389 231.985C356.902 232.733 356.171 233.107 355.197 233.107ZM355.074 227.897C354.673 227.897 354.336 228.044 354.064 228.338C353.792 228.628 353.624 229.036 353.559 229.562H356.47V229.487C356.442 228.982 356.306 228.592 356.062 228.316C355.819 228.037 355.489 227.897 355.074 227.897ZM361.428 228.08C361.277 228.055 361.114 228.042 360.939 228.042C360.287 228.042 359.845 228.32 359.612 228.875V233H358.619V227.188H359.585L359.602 227.86C359.927 227.341 360.389 227.081 360.987 227.081C361.181 227.081 361.327 227.106 361.428 227.156V228.08Z" fill="black"/>
<path d="M311.283 202.535L311.434 203.566L311.654 202.637L313.201 197.18H314.071L315.58 202.637L315.795 203.582L315.961 202.529L317.175 197.18H318.212L316.316 205H315.376L313.765 199.301L313.641 198.705L313.518 199.301L311.847 205H310.907L309.017 197.18H310.048L311.283 202.535ZM318.771 202.041C318.771 201.471 318.882 200.959 319.104 200.504C319.329 200.05 319.641 199.699 320.038 199.452C320.439 199.205 320.896 199.081 321.408 199.081C322.199 199.081 322.838 199.355 323.325 199.903C323.816 200.451 324.061 201.179 324.061 202.089V202.159C324.061 202.724 323.952 203.233 323.733 203.684C323.519 204.132 323.209 204.481 322.804 204.731C322.403 204.982 321.941 205.107 321.418 205.107C320.631 205.107 319.992 204.833 319.501 204.286C319.014 203.738 318.771 203.013 318.771 202.11V202.041ZM319.77 202.159C319.77 202.803 319.918 203.321 320.215 203.711C320.516 204.101 320.917 204.296 321.418 204.296C321.923 204.296 322.324 204.099 322.622 203.706C322.919 203.308 323.067 202.753 323.067 202.041C323.067 201.403 322.915 200.888 322.611 200.494C322.31 200.096 321.909 199.897 321.408 199.897C320.917 199.897 320.521 200.093 320.221 200.483C319.92 200.873 319.77 201.432 319.77 202.159ZM328.116 200.08C327.966 200.055 327.803 200.042 327.627 200.042C326.976 200.042 326.534 200.32 326.301 200.875V205H325.307V199.188H326.274L326.29 199.86C326.616 199.341 327.078 199.081 327.676 199.081C327.869 199.081 328.016 199.106 328.116 199.156V200.08ZM330.657 202.309L330.034 202.959V205H329.04V196.75H330.034V201.74L330.565 201.101L332.375 199.188H333.584L331.323 201.616L333.847 205H332.682L330.657 202.309ZM336.914 205.107C336.126 205.107 335.485 204.85 334.991 204.334C334.497 203.815 334.25 203.122 334.25 202.255V202.073C334.25 201.496 334.359 200.982 334.578 200.531C334.8 200.076 335.108 199.722 335.501 199.468C335.899 199.21 336.329 199.081 336.791 199.081C337.546 199.081 338.133 199.33 338.552 199.828C338.971 200.325 339.181 201.038 339.181 201.965V202.379H335.244C335.258 202.952 335.424 203.416 335.743 203.77C336.065 204.121 336.474 204.296 336.968 204.296C337.319 204.296 337.616 204.225 337.859 204.082C338.103 203.938 338.316 203.749 338.499 203.512L339.105 203.985C338.618 204.733 337.888 205.107 336.914 205.107ZM336.791 199.897C336.389 199.897 336.053 200.044 335.781 200.338C335.509 200.628 335.34 201.036 335.276 201.562H338.187V201.487C338.158 200.982 338.022 200.592 337.779 200.316C337.535 200.037 337.206 199.897 336.791 199.897ZM343.145 200.08C342.994 200.055 342.831 200.042 342.656 200.042C342.004 200.042 341.562 200.32 341.329 200.875V205H340.335V199.188H341.302L341.318 199.86C341.644 199.341 342.106 199.081 342.704 199.081C342.897 199.081 343.044 199.106 343.145 199.156V200.08Z" fill="black"/>
<rect x="446" y="185" width="90" height="60" fill="#C4C4C4"/>
<rect x="446" y="215" width="90" height="30" fill="#E5E5E5"/>
<path d="M475.311 201.514C474.427 201.26 473.782 200.948 473.377 200.58C472.976 200.207 472.776 199.749 472.776 199.205C472.776 198.589 473.021 198.08 473.512 197.679C474.006 197.275 474.647 197.072 475.435 197.072C475.972 197.072 476.45 197.176 476.869 197.384C477.291 197.591 477.617 197.878 477.846 198.243C478.079 198.608 478.195 199.008 478.195 199.441H477.159C477.159 198.968 477.008 198.598 476.708 198.329C476.407 198.057 475.982 197.921 475.435 197.921C474.926 197.921 474.529 198.034 474.242 198.259C473.959 198.481 473.818 198.791 473.818 199.188C473.818 199.507 473.952 199.778 474.221 200C474.493 200.218 474.953 200.418 475.601 200.601C476.253 200.784 476.761 200.986 477.126 201.208C477.495 201.426 477.767 201.682 477.943 201.976C478.122 202.27 478.211 202.615 478.211 203.013C478.211 203.646 477.964 204.155 477.47 204.538C476.976 204.918 476.315 205.107 475.488 205.107C474.951 205.107 474.45 205.005 473.984 204.801C473.519 204.594 473.159 204.311 472.905 203.953C472.654 203.595 472.529 203.188 472.529 202.733H473.565C473.565 203.206 473.739 203.58 474.086 203.856C474.437 204.128 474.905 204.264 475.488 204.264C476.033 204.264 476.45 204.153 476.74 203.931C477.03 203.709 477.175 203.407 477.175 203.023C477.175 202.64 477.041 202.345 476.772 202.137C476.503 201.926 476.016 201.718 475.311 201.514ZM480.73 197.781V199.188H481.815V199.957H480.73V203.561C480.73 203.793 480.779 203.969 480.875 204.087C480.972 204.201 481.137 204.259 481.37 204.259C481.484 204.259 481.642 204.237 481.842 204.194V205C481.581 205.072 481.327 205.107 481.08 205.107C480.636 205.107 480.301 204.973 480.075 204.705C479.85 204.436 479.737 204.055 479.737 203.561V199.957H478.679V199.188H479.737V197.781H480.73ZM482.61 202.041C482.61 201.471 482.721 200.959 482.943 200.504C483.169 200.05 483.48 199.699 483.878 199.452C484.279 199.205 484.736 199.081 485.248 199.081C486.039 199.081 486.678 199.355 487.165 199.903C487.656 200.451 487.901 201.179 487.901 202.089V202.159C487.901 202.724 487.792 203.233 487.573 203.684C487.358 204.132 487.049 204.481 486.644 204.731C486.243 204.982 485.781 205.107 485.258 205.107C484.471 205.107 483.831 204.833 483.341 204.286C482.854 203.738 482.61 203.013 482.61 202.11V202.041ZM483.609 202.159C483.609 202.803 483.758 203.321 484.055 203.711C484.356 204.101 484.757 204.296 485.258 204.296C485.763 204.296 486.164 204.099 486.461 203.706C486.759 203.308 486.907 202.753 486.907 202.041C486.907 201.403 486.755 200.888 486.451 200.494C486.15 200.096 485.749 199.897 485.248 199.897C484.757 199.897 484.361 200.093 484.061 200.483C483.76 200.873 483.609 201.432 483.609 202.159ZM491.956 200.08C491.806 200.055 491.643 200.042 491.467 200.042C490.816 200.042 490.373 200.32 490.141 200.875V205H489.147V199.188H490.114L490.13 199.86C490.456 199.341 490.918 199.081 491.516 199.081C491.709 199.081 491.856 199.106 491.956 199.156V200.08ZM496.248 205C496.19 204.885 496.144 204.681 496.108 204.388C495.646 204.868 495.095 205.107 494.454 205.107C493.881 205.107 493.41 204.946 493.041 204.624C492.676 204.298 492.493 203.886 492.493 203.389C492.493 202.784 492.722 202.314 493.181 201.981C493.643 201.645 494.291 201.477 495.125 201.477H496.092V201.02C496.092 200.673 495.988 200.397 495.78 200.193C495.573 199.985 495.266 199.881 494.862 199.881C494.507 199.881 494.21 199.971 493.97 200.15C493.73 200.329 493.61 200.546 493.61 200.8H492.611C492.611 200.51 492.713 200.23 492.917 199.962C493.125 199.69 493.404 199.475 493.755 199.317C494.11 199.16 494.498 199.081 494.921 199.081C495.59 199.081 496.115 199.249 496.495 199.586C496.874 199.919 497.071 200.379 497.085 200.966V203.641C497.085 204.175 497.153 204.599 497.29 204.914V205H496.248ZM494.599 204.243C494.91 204.243 495.206 204.162 495.485 204.001C495.764 203.84 495.966 203.63 496.092 203.373V202.18H495.313C494.096 202.18 493.487 202.536 493.487 203.249C493.487 203.561 493.591 203.804 493.798 203.979C494.006 204.155 494.273 204.243 494.599 204.243ZM498.407 202.046C498.407 201.14 498.616 200.42 499.035 199.887C499.454 199.35 500.009 199.081 500.7 199.081C501.409 199.081 501.962 199.332 502.36 199.833L502.408 199.188H503.316V204.86C503.316 205.612 503.092 206.205 502.645 206.638C502.201 207.071 501.603 207.288 500.851 207.288C500.432 207.288 500.022 207.199 499.621 207.02C499.22 206.84 498.913 206.595 498.702 206.284L499.218 205.688C499.644 206.214 500.165 206.477 500.781 206.477C501.264 206.477 501.64 206.341 501.909 206.069C502.181 205.797 502.317 205.414 502.317 204.919V204.42C501.919 204.878 501.377 205.107 500.689 205.107C500.009 205.107 499.458 204.833 499.035 204.286C498.616 203.738 498.407 202.991 498.407 202.046ZM499.406 202.159C499.406 202.814 499.54 203.33 499.809 203.706C500.077 204.078 500.453 204.264 500.937 204.264C501.563 204.264 502.023 203.979 502.317 203.41V200.757C502.013 200.202 501.556 199.924 500.947 199.924C500.464 199.924 500.086 200.112 499.814 200.488C499.542 200.864 499.406 201.421 499.406 202.159ZM507.231 205.107C506.444 205.107 505.803 204.85 505.309 204.334C504.814 203.815 504.567 203.122 504.567 202.255V202.073C504.567 201.496 504.677 200.982 504.895 200.531C505.117 200.076 505.425 199.722 505.819 199.468C506.216 199.21 506.646 199.081 507.108 199.081C507.863 199.081 508.451 199.33 508.87 199.828C509.289 200.325 509.498 201.038 509.498 201.965V202.379H505.561C505.575 202.952 505.742 203.416 506.061 203.77C506.383 204.121 506.791 204.296 507.285 204.296C507.636 204.296 507.933 204.225 508.177 204.082C508.42 203.938 508.633 203.749 508.816 203.512L509.423 203.985C508.936 204.733 508.205 205.107 507.231 205.107ZM507.108 199.897C506.707 199.897 506.37 200.044 506.098 200.338C505.826 200.628 505.658 201.036 505.593 201.562H508.504V201.487C508.476 200.982 508.34 200.592 508.096 200.316C507.853 200.037 507.523 199.897 507.108 199.897Z" fill="black"/>
<rect x="445" y="75" width="90" height="60" fill="#C4C4C4"/>
<rect x="445" y="105" width="90" height="30" fill="#E5E5E5"/>
<path d="M467.683 95V87.1797H469.891C470.571 87.1797 471.173 87.3301 471.695 87.6309C472.218 87.9316 472.621 88.3595 472.904 88.9146C473.19 89.4696 473.335 90.1069 473.339 90.8267V91.3262C473.339 92.0638 473.196 92.7101 472.909 93.2651C472.626 93.8201 472.22 94.2463 471.69 94.5435C471.164 94.8407 470.549 94.9928 469.848 95H467.683ZM468.714 88.0283V94.1567H469.799C470.594 94.1567 471.212 93.9097 471.652 93.4155C472.096 92.9214 472.318 92.2178 472.318 91.3047V90.8481C472.318 89.9601 472.109 89.2708 471.69 88.7803C471.275 88.2861 470.684 88.0355 469.917 88.0283H468.714ZM478.334 95C478.277 94.8854 478.23 94.6813 478.194 94.3877C477.732 94.8675 477.181 95.1074 476.54 95.1074C475.967 95.1074 475.496 94.9463 475.127 94.624C474.762 94.2982 474.58 93.8864 474.58 93.3887C474.58 92.7835 474.809 92.3145 475.267 91.9814C475.729 91.6449 476.377 91.4766 477.211 91.4766H478.178V91.02C478.178 90.6727 478.074 90.397 477.867 90.1929C477.659 89.9852 477.353 89.8813 476.948 89.8813C476.594 89.8813 476.297 89.9709 476.057 90.1499C475.817 90.3289 475.697 90.5456 475.697 90.7998H474.698C474.698 90.5098 474.8 90.2305 475.004 89.9619C475.212 89.6898 475.491 89.4749 475.842 89.3174C476.196 89.1598 476.585 89.0811 477.007 89.0811C477.677 89.0811 478.201 89.2493 478.581 89.5859C478.961 89.9189 479.158 90.3791 479.172 90.9663V93.6411C479.172 94.1746 479.24 94.599 479.376 94.9141V95H478.334ZM476.685 94.2427C476.997 94.2427 477.292 94.1621 477.571 94.001C477.851 93.8398 478.053 93.6304 478.178 93.3726V92.1802H477.399C476.182 92.1802 475.573 92.5365 475.573 93.249C475.573 93.5605 475.677 93.804 475.885 93.9795C476.092 94.1549 476.359 94.2427 476.685 94.2427ZM482.078 87.7812V89.1885H483.163V89.9565H482.078V93.5605C482.078 93.7933 482.126 93.9688 482.223 94.0869C482.319 94.2015 482.484 94.2588 482.717 94.2588C482.831 94.2588 482.989 94.2373 483.189 94.1943V95C482.928 95.0716 482.674 95.1074 482.427 95.1074C481.983 95.1074 481.648 94.9731 481.422 94.7046C481.197 94.436 481.084 94.0547 481.084 93.5605V89.9565H480.026V89.1885H481.084V87.7812H482.078ZM487.916 95C487.859 94.8854 487.812 94.6813 487.776 94.3877C487.314 94.8675 486.763 95.1074 486.122 95.1074C485.549 95.1074 485.078 94.9463 484.709 94.624C484.344 94.2982 484.162 93.8864 484.162 93.3887C484.162 92.7835 484.391 92.3145 484.849 91.9814C485.311 91.6449 485.959 91.4766 486.793 91.4766H487.76V91.02C487.76 90.6727 487.656 90.397 487.449 90.1929C487.241 89.9852 486.935 89.8813 486.53 89.8813C486.176 89.8813 485.879 89.9709 485.639 90.1499C485.399 90.3289 485.279 90.5456 485.279 90.7998H484.28C484.28 90.5098 484.382 90.2305 484.586 89.9619C484.794 89.6898 485.073 89.4749 485.424 89.3174C485.778 89.1598 486.167 89.0811 486.589 89.0811C487.259 89.0811 487.784 89.2493 488.163 89.5859C488.543 89.9189 488.74 90.3791 488.754 90.9663V93.6411C488.754 94.1746 488.822 94.599 488.958 94.9141V95H487.916ZM486.267 94.2427C486.579 94.2427 486.874 94.1621 487.153 94.001C487.433 93.8398 487.635 93.6304 487.76 93.3726V92.1802H486.981C485.764 92.1802 485.155 92.5365 485.155 93.249C485.155 93.5605 485.259 93.804 485.467 93.9795C485.674 94.1549 485.941 94.2427 486.267 94.2427ZM495.231 92.1587C495.231 93.0467 495.027 93.7611 494.619 94.3018C494.211 94.8389 493.663 95.1074 492.976 95.1074C492.242 95.1074 491.674 94.8478 491.273 94.3286L491.225 95H490.312V86.75H491.305V89.8276C491.706 89.3299 492.259 89.0811 492.965 89.0811C493.67 89.0811 494.223 89.3478 494.625 89.8813C495.029 90.4149 495.231 91.1453 495.231 92.0728V92.1587ZM494.238 92.0459C494.238 91.3691 494.107 90.8464 493.846 90.4775C493.584 90.1087 493.208 89.9243 492.718 89.9243C492.062 89.9243 491.592 90.2287 491.305 90.8374V93.3511C491.61 93.9598 492.084 94.2642 492.729 94.2642C493.205 94.2642 493.575 94.0798 493.84 93.7109C494.105 93.3421 494.238 92.7871 494.238 92.0459ZM500.076 95C500.019 94.8854 499.972 94.6813 499.937 94.3877C499.475 94.8675 498.923 95.1074 498.282 95.1074C497.709 95.1074 497.238 94.9463 496.87 94.624C496.504 94.2982 496.322 93.8864 496.322 93.3887C496.322 92.7835 496.551 92.3145 497.009 91.9814C497.471 91.6449 498.119 91.4766 498.954 91.4766H499.92V91.02C499.92 90.6727 499.817 90.397 499.609 90.1929C499.401 89.9852 499.095 89.8813 498.69 89.8813C498.336 89.8813 498.039 89.9709 497.799 90.1499C497.559 90.3289 497.439 90.5456 497.439 90.7998H496.44C496.44 90.5098 496.542 90.2305 496.746 89.9619C496.954 89.6898 497.233 89.4749 497.584 89.3174C497.938 89.1598 498.327 89.0811 498.75 89.0811C499.419 89.0811 499.944 89.2493 500.323 89.5859C500.703 89.9189 500.9 90.3791 500.914 90.9663V93.6411C500.914 94.1746 500.982 94.599 501.118 94.9141V95H500.076ZM498.427 94.2427C498.739 94.2427 499.034 94.1621 499.313 94.001C499.593 93.8398 499.795 93.6304 499.92 93.3726V92.1802H499.142C497.924 92.1802 497.315 92.5365 497.315 93.249C497.315 93.5605 497.419 93.804 497.627 93.9795C497.835 94.1549 498.101 94.2427 498.427 94.2427ZM505.855 93.4585C505.855 93.1899 505.753 92.9823 505.549 92.8354C505.349 92.6851 504.996 92.5562 504.491 92.4487C503.99 92.3413 503.591 92.2124 503.293 92.062C503 91.9116 502.781 91.7326 502.638 91.5249C502.499 91.3172 502.429 91.0701 502.429 90.7837C502.429 90.3075 502.629 89.9046 503.03 89.5752C503.435 89.2458 503.951 89.0811 504.577 89.0811C505.236 89.0811 505.77 89.2511 506.178 89.5913C506.59 89.9315 506.795 90.3665 506.795 90.8965H505.796C505.796 90.6243 505.68 90.3898 505.447 90.1929C505.218 89.9959 504.928 89.8975 504.577 89.8975C504.215 89.8975 503.933 89.9762 503.729 90.1338C503.524 90.2913 503.422 90.4972 503.422 90.7515C503.422 90.9914 503.517 91.1722 503.707 91.2939C503.897 91.4157 504.239 91.5321 504.733 91.6431C505.231 91.7541 505.633 91.8866 505.941 92.0405C506.249 92.1945 506.477 92.3807 506.624 92.5991C506.774 92.814 506.849 93.0771 506.849 93.3887C506.849 93.9079 506.641 94.325 506.226 94.6401C505.811 94.9517 505.272 95.1074 504.609 95.1074C504.144 95.1074 503.732 95.0251 503.374 94.8604C503.016 94.6956 502.735 94.4665 502.531 94.1729C502.33 93.8757 502.23 93.5552 502.23 93.2114H503.224C503.242 93.5444 503.374 93.8094 503.621 94.0063C503.872 94.1997 504.201 94.2964 504.609 94.2964C504.985 94.2964 505.286 94.2212 505.512 94.0708C505.741 93.9168 505.855 93.7127 505.855 93.4585ZM510.555 95.1074C509.767 95.1074 509.126 94.8496 508.632 94.334C508.138 93.8148 507.891 93.1219 507.891 92.2554V92.0728C507.891 91.4963 508 90.9824 508.219 90.5312C508.441 90.0765 508.749 89.722 509.143 89.4678C509.54 89.21 509.97 89.0811 510.432 89.0811C511.187 89.0811 511.774 89.3299 512.193 89.8276C512.612 90.3254 512.822 91.0379 512.822 91.9653V92.3789H508.885C508.899 92.9518 509.066 93.4155 509.384 93.77C509.707 94.1209 510.115 94.2964 510.609 94.2964C510.96 94.2964 511.257 94.2248 511.5 94.0815C511.744 93.9383 511.957 93.7485 512.14 93.5122L512.747 93.9849C512.26 94.7332 511.529 95.1074 510.555 95.1074ZM510.432 89.8975C510.031 89.8975 509.694 90.0443 509.422 90.3379C509.15 90.6279 508.981 91.0361 508.917 91.5625H511.828V91.4873C511.799 90.9824 511.663 90.5921 511.42 90.3164C511.176 90.0371 510.847 89.8975 510.432 89.8975Z" fill="black"/>
<path d="M474.827 115.18L477.383 121.561L479.94 115.18H481.277V123H480.246V119.955L480.343 116.667L477.775 123H476.986L474.424 116.684L474.526 119.955V123H473.495V115.18H474.827ZM484.844 121.544L486.197 117.188H487.261L484.924 123.897C484.563 124.864 483.988 125.347 483.2 125.347L483.012 125.331L482.642 125.261V124.456L482.91 124.477C483.247 124.477 483.508 124.409 483.694 124.273C483.884 124.137 484.04 123.888 484.162 123.526L484.382 122.936L482.309 117.188H483.394L484.844 121.544ZM490.612 119.514C489.728 119.26 489.083 118.948 488.679 118.58C488.278 118.207 488.077 117.749 488.077 117.205C488.077 116.589 488.322 116.08 488.813 115.679C489.307 115.275 489.948 115.072 490.736 115.072C491.273 115.072 491.751 115.176 492.17 115.384C492.592 115.591 492.918 115.878 493.147 116.243C493.38 116.608 493.497 117.008 493.497 117.441H492.46C492.46 116.968 492.31 116.598 492.009 116.329C491.708 116.057 491.284 115.921 490.736 115.921C490.227 115.921 489.83 116.034 489.543 116.259C489.261 116.481 489.119 116.791 489.119 117.188C489.119 117.507 489.253 117.778 489.522 118C489.794 118.218 490.254 118.418 490.902 118.601C491.554 118.784 492.062 118.986 492.428 119.208C492.797 119.426 493.069 119.682 493.244 119.976C493.423 120.27 493.513 120.615 493.513 121.013C493.513 121.646 493.266 122.155 492.771 122.538C492.277 122.918 491.617 123.107 490.79 123.107C490.252 123.107 489.751 123.005 489.286 122.801C488.82 122.594 488.46 122.311 488.206 121.953C487.955 121.595 487.83 121.188 487.83 120.733H488.867C488.867 121.206 489.04 121.58 489.388 121.856C489.739 122.128 490.206 122.264 490.79 122.264C491.334 122.264 491.751 122.153 492.041 121.931C492.331 121.709 492.476 121.407 492.476 121.023C492.476 120.64 492.342 120.345 492.073 120.137C491.805 119.926 491.318 119.718 490.612 119.514ZM500.812 119.342C500.812 120.098 500.692 120.75 500.452 121.297C500.212 121.842 499.876 122.268 499.442 122.576L500.839 123.671L500.135 124.321L498.486 123.011C498.229 123.075 497.956 123.107 497.67 123.107C497.054 123.107 496.508 122.957 496.032 122.656C495.556 122.352 495.185 121.92 494.92 121.362C494.659 120.8 494.524 120.15 494.517 119.412V118.848C494.517 118.096 494.648 117.432 494.909 116.855C495.171 116.279 495.539 115.839 496.016 115.534C496.495 115.226 497.043 115.072 497.659 115.072C498.289 115.072 498.843 115.224 499.319 115.529C499.799 115.833 500.167 116.272 500.425 116.845C500.683 117.414 500.812 118.08 500.812 118.843V119.342ZM499.781 118.837C499.781 117.917 499.596 117.208 499.228 116.71C498.862 116.209 498.34 115.958 497.659 115.958C497.011 115.958 496.499 116.207 496.123 116.705C495.751 117.199 495.559 117.887 495.548 118.768V119.342C495.548 120.237 495.735 120.943 496.107 121.458C496.483 121.974 497.004 122.232 497.67 122.232C498.336 122.232 498.852 121.99 499.217 121.507C499.582 121.02 499.77 120.323 499.781 119.417V118.837ZM503.438 122.157H507.145V123H502.402V115.18H503.438V122.157Z" fill="black"/>
<path d="M423.354 215.354C423.549 215.158 423.549 214.842 423.354 214.646L420.172 211.464C419.976 211.269 419.66 211.269 419.464 211.464C419.269 211.66 419.269 211.976 419.464 212.172L422.293 215L419.464 217.828C419.269 218.024 419.269 218.34 419.464 218.536C419.66 218.731 419.976 218.731 420.172 218.536L423.354 215.354ZM394 215.5H423V214.5H394V215.5Z" fill="black"/>
<path d="M445.494 144.922C445.451 144.65 445.195 144.463 444.922 144.506L440.477 145.204C440.204 145.247 440.018 145.503 440.061 145.776C440.103 146.048 440.359 146.235 440.632 146.192L444.584 145.572L445.204 149.523C445.247 149.796 445.503 149.982 445.776 149.939C446.048 149.897 446.235 149.641 446.192 149.368L445.494 144.922ZM394.404 215.294L445.404 145.294L444.596 144.706L393.596 214.706L394.404 215.294Z" fill="black"/>
<path d="M159.646 174.354C159.842 174.549 160.158 174.549 160.354 174.354L163.536 171.172C163.731 170.976 163.731 170.66 163.536 170.464C163.34 170.269 163.024 170.269 162.828 170.464L160 173.293L157.172 170.464C156.976 170.269 156.66 170.269 156.464 170.464C156.269 170.66 156.269 170.976 156.464 171.172L159.646 174.354ZM159.5 145V174H160.5V145H159.5Z" fill="black"/>
<path d="M258.354 215.354C258.549 215.158 258.549 214.842 258.354 214.646L255.172 211.464C254.976 211.269 254.66 211.269 254.464 211.464C254.269 211.66 254.269 211.976 254.464 212.172L257.293 215L254.464 217.828C254.269 218.024 254.269 218.34 254.464 218.536C254.66 218.731 254.976 218.731 255.172 218.536L258.354 215.354ZM229 215.5H258V214.5H229V215.5Z" fill="black"/>
<path d="M423.354 92.3536C423.549 92.1583 423.549 91.8417 423.354 91.6464L420.172 88.4645C419.976 88.2692 419.66 88.2692 419.464 88.4645C419.269 88.6597 419.269 88.9763 419.464 89.1716L422.293 92L419.464 94.8284C419.269 95.0237 419.269 95.3403 419.464 95.5355C419.66 95.7308 419.976 95.7308 420.172 95.5355L423.354 92.3536ZM228 92.5H423V91.5H228V92.5Z" fill="black"/>
<path d="M227.646 119.646C227.451 119.842 227.451 120.158 227.646 120.354L230.828 123.536C231.024 123.731 231.34 123.731 231.536 123.536C231.731 123.34 231.731 123.024 231.536 122.828L228.707 120L231.536 117.172C231.731 116.976 231.731 116.66 231.536 116.464C231.34 116.269 231.024 116.269 230.828 116.464L227.646 119.646ZM423 119.5H228V120.5H423V119.5Z" fill="black"/>
<path d="M93.3536 95.3536C93.5488 95.1583 93.5488 94.8417 93.3536 94.6464L90.1716 91.4645C89.9763 91.2692 89.6597 91.2692 89.4645 91.4645C89.2692 91.6597 89.2692 91.9763 89.4645 92.1716L92.2929 95L89.4645 97.8284C89.2692 98.0237 89.2692 98.3403 89.4645 98.5355C89.6597 98.7308 89.9763 98.7308 90.1716 98.5355L93.3536 95.3536ZM64 95.5H93V94.5H64V95.5Z" fill="black"/>
<path d="M63.6464 122.646C63.4512 122.842 63.4512 123.158 63.6464 123.354L66.8284 126.536C67.0237 126.731 67.3403 126.731 67.5355 126.536C67.7308 126.34 67.7308 126.024 67.5355 125.828L64.7071 123L67.5355 120.172C67.7308 119.976 67.7308 119.66 67.5355 119.464C67.3403 119.269 67.0237 119.269 66.8284 119.464L63.6464 122.646ZM93 122.5H64V123.5H93V122.5Z" fill="black"/>
<path d="M72.0015 113H70.9648V109.385H67.0225V113H65.9912V105.18H67.0225V108.542H70.9648V105.18H72.0015V113ZM79.0752 106.028H76.5615V113H75.5356V106.028H73.0273V105.18H79.0752V106.028ZM85.7246 106.028H83.2109V113H82.1851V106.028H79.6768V105.18H85.7246V106.028ZM87.916 109.938V113H86.8848V105.18H89.769C90.6248 105.18 91.2944 105.398 91.7778 105.835C92.2648 106.272 92.5083 106.85 92.5083 107.57C92.5083 108.329 92.2702 108.914 91.7939 109.326C91.3213 109.734 90.6427 109.938 89.7583 109.938H87.916ZM87.916 109.095H89.769C90.3205 109.095 90.743 108.966 91.0366 108.708C91.3302 108.447 91.4771 108.071 91.4771 107.581C91.4771 107.115 91.3302 106.743 91.0366 106.463C90.743 106.184 90.3402 106.039 89.8281 106.028H87.916V109.095Z" fill="black"/>
</svg>
